<?xml version="1.0" encoding="utf-8"?>
<!-- Generator: Adobe Illustrator 26.3.1, SVG Export Plug-In . SVG Version: 6.00 Build 0)  -->
<svg version="1.1" id="レイヤー_1" xmlns="http://www.w3.org/2000/svg" xmlns:xlink="http://www.w3.org/1999/xlink" x="0px"
	 y="0px" viewBox="0 0 65 65" style="enable-background:new 0 0 65 65;" xml:space="preserve">
<style type="text/css">
	.st0{fill:#7BCCD4;}
	.st1{enable-background:new    ;}
	.st2{fill:#FFFFFF;}
</style>
<g id="a">
</g>
<g id="b">
	<g id="c">
		<g>
			<circle class="st0" cx="32.5" cy="32.5" r="32.5"/>
			<g class="st1">
				<path class="st2" d="M34.4,29.4c0,1.7,0,2,0.6,2.2c0.5,0.3,1.2,0.4,3,0.4v1.1h-10v-1.1c3.5,0,3.8-0.2,3.8-2.6v-8.7
					c0-1.1-0.1-1.5-0.4-1.7c-0.6-0.3-1.4-0.4-3.3-0.4v-1c2.5-0.5,4.2-1,6.4-2V29.4z"/>
			</g>
			<g class="st1">
				<path class="st2" d="M21.2,47.2c-0.4,0-0.6-0.3-0.6-0.7c0-0.3,0.2-0.5,0.5-0.6c1.5-0.4,3-1.1,4.2-2.1c-0.3-0.2-0.7-0.4-1.1-0.6
					c-0.2-0.1-0.4-0.3-0.4-0.4c0-0.3,0.3-0.6,0.7-0.6c0.4,0,1.3,0.5,1.7,0.8c1.1-1,1.9-2.1,1.9-2.3c0-0.1,0-0.2-0.9-0.2
					c-0.6,0-1.3,0-1.9,0c-0.9,0.9-3.2,3.1-4,3.1c-0.4,0-0.7-0.3-0.7-0.6c0-0.2,0.1-0.4,0.4-0.5c1.4-0.7,3.2-2.3,4.2-3.8
					c0.1-0.2,0.3-0.3,0.5-0.3c0.4,0,0.7,0.3,0.7,0.6c0,0.1,0,0.2-0.2,0.5c0.8,0,1.6,0,2.1,0c0.7,0,1.2,0.4,1.2,0.9
					c0,0.2-0.1,0.5-0.3,0.8c-0.8,1.1-1.9,2.3-3.3,3.4c0.4,0,0.9,0,1.3,0c0.7,0,1.5,0,2.2,0c0.8,0,1.3,0.6,1.3,1.2c0,0.4,0,0.8,0,1.2
					c0,0.4,0,0.8,0,1.2c0,0.7-0.6,1.3-1.4,1.3c-0.6,0-1.3,0-1.9,0c-0.7,0-1.4,0-2,0c-0.9,0-1.4-0.6-1.4-1.3c0-0.3,0-0.7,0-1
					c0-0.4,0-0.9,0-1.2C23.1,46.6,21.6,47.2,21.2,47.2z M29.7,47.1c0-0.3,0-0.6,0-0.9c0-0.3-0.2-0.5-0.6-0.5c-0.5,0-1.1,0-1.6,0
					s-1.1,0-1.6,0c-0.4,0-0.6,0.3-0.6,0.5c0,0.2,0,0.4,0,0.7c0,0.3,0,0.7,0,1c0,0.5,0.2,0.5,2.2,0.5c0.6,0,1.1,0,1.6,0
					c0.3,0,0.6-0.2,0.6-0.5C29.7,47.7,29.7,47.4,29.7,47.1z"/>
				<path class="st2" d="M44.3,44.2l-2.7,0c0.2,0.5,0.4,1.1,0.7,1.6c0.5-0.3,1-0.7,1.3-1c0.1-0.1,0.2-0.2,0.4-0.2
					c0.3,0,0.6,0.3,0.6,0.6c0,0.4-0.8,0.9-1.7,1.4c0.5,0.6,1.1,1.1,1.7,1.5c0.2,0.1,0.3,0.3,0.3,0.5c0,0.3-0.3,0.6-0.6,0.6
					c-0.6,0-2-1.5-2.8-3.2l0,0.4l0.1,1.9c0,0,0,0.1,0,0.1c0,0.7-0.4,1.5-1.8,1.5c-0.9,0-1.3-0.2-1.3-0.7c0-0.3,0.2-0.6,0.5-0.6
					c0,0,0.1,0,0.1,0c0.2,0.1,0.5,0.1,0.7,0.1c0.4,0,0.7-0.2,0.7-0.8l0-3.8l-2.3,0c-0.1,0-0.2,0-0.3-0.1c0,0.1,0.1,0.1,0.1,0.2
					c0,0.3-0.3,0.6-0.6,0.6c-0.1,0-0.3-0.1-0.4-0.2c-0.1-0.2-0.3-0.4-0.5-0.6c0,2,0.1,5.3,0.1,5.3v0c0,0.4-0.3,0.5-0.6,0.5
					c-0.3,0-0.6-0.2-0.6-0.5v0l0.1-4.7c-0.3,0.6-0.7,1.2-1.1,1.6c-0.2,0.2-0.4,0.3-0.5,0.3c-0.3,0-0.6-0.3-0.6-0.6
					c0-0.2,0.1-0.3,0.2-0.5c0.7-0.7,1.5-1.9,2-3.1v-0.3l-1.3,0c0,0,0,0,0,0c-0.4,0-0.6-0.3-0.6-0.5s0.2-0.6,0.6-0.6h1.2l0-2.1v0
					c0-0.4,0.3-0.6,0.6-0.6c0.3,0,0.6,0.2,0.6,0.6v0c0,0,0,1,0,2.1h0.9c0.4,0,0.6,0.3,0.6,0.6c0,0.3-0.2,0.6-0.6,0.6h0l-0.9,0
					c0,0.3,0,0.6,0,0.9c0.1,0,0.1,0,0.2,0c0.3,0.1,0.8,0.5,1,0.7c0,0,0-0.1,0-0.1c0-0.2,0.2-0.5,0.5-0.5h2.3l0-0.7h-1.8
					c-0.4,0-0.5-0.2-0.5-0.4c0-0.2,0.2-0.5,0.5-0.5h1.8v-0.6h-2.1c-0.4,0-0.5-0.2-0.5-0.5c0-0.2,0.2-0.5,0.5-0.5h1.1
					c-0.2-0.3-0.3-0.5-0.6-0.7c-0.1-0.1-0.2-0.2-0.2-0.3c0-0.3,0.3-0.5,0.6-0.5c0.4,0,1.3,0.9,1.3,1.3c0,0.1,0,0.2-0.1,0.3h0.9
					c0.3-0.4,0.5-0.9,0.7-1.3c0.1-0.2,0.3-0.3,0.5-0.3c0.3,0,0.7,0.3,0.7,0.6c0,0.1,0,0.3-0.6,1.1h1.5c0.4,0,0.5,0.2,0.5,0.5
					c0,0.2-0.2,0.5-0.5,0.5h-2.5l0,0.6h2c0.3,0,0.5,0.2,0.5,0.5s-0.2,0.5-0.5,0.5h-2l0,0.7h2.8c0.3,0,0.5,0.2,0.5,0.5
					C44.7,43.9,44.6,44.2,44.3,44.2L44.3,44.2z M37.5,48.7c-0.4,0-0.6-0.3-0.6-0.6c0-0.2,0.1-0.4,0.4-0.5c0.9-0.3,1.4-0.6,2.2-1.1
					c0.1-0.1,0.2-0.1,0.3-0.1c0.3,0,0.5,0.2,0.5,0.5c0,0.2-0.1,0.3-0.3,0.5C39.3,47.9,37.9,48.7,37.5,48.7z M38.9,46.2
					c-0.4-0.4-0.8-0.5-1-0.6c-0.2-0.1-0.2-0.2-0.2-0.4c0-0.3,0.3-0.5,0.6-0.5c0.2,0,1.6,0.4,1.6,1.1c0,0.3-0.3,0.6-0.5,0.6
					C39.1,46.3,39,46.3,38.9,46.2z"/>
			</g>
		</g>
	</g>
</g>
</svg>
