<svg xmlns="http://www.w3.org/2000/svg" viewBox="0 0 500.35 282.35"><defs><style>.cls-1{opacity:0.52;}.cls-2{fill:none;}.cls-2,.cls-3{stroke:#fff;stroke-miterlimit:10;}.cls-3,.cls-4{fill:#7bccd4;}.cls-5{fill:#7bbbc3;}.cls-6{fill:#fff;}</style></defs><g id="レイヤー_2" data-name="レイヤー 2"><g id="レイヤー_1-2" data-name="レイヤー 1"><g class="cls-1"><path class="cls-2" d="M212,21.35c2.3,7.06,2.47,14.6,3.94,21.84"/><path class="cls-2" d="M32.72,247.34c33.44,6,66.93,11.73,100.54,16.71,4.78.71,9.63,1.23,14.37,2.19,4.55.92,9,2.28,13.67,2.71"/><path class="cls-2" d="M462.88,220.22c-17.33,6.69-34.79,13.06-52.24,19.41"/><path class="cls-2" d="M500.18,206.35l-15.74,5.85-9,3.33"/><path class="cls-2" d="M421.28,200.59c-26.35,15.66-52.9,31.59-79.78,46.79"/><path class="cls-2" d="M498.93,155.05C477.24,167.57,456,180,434,193.11"/><path class="cls-2" d="M377.62,194.84q-22.49,19.14-45,38.23"/><path class="cls-2" d="M425.43,154.12l-35.82,30.51"/><path class="cls-2" d="M461.35,123.56c-8.89,6.84-16.86,13.92-24.76,21.06"/><path class="cls-2" d="M374.74,156.07c-14.33,17.7-28.49,35.4-44.42,53.1-2.65,3.54-6.19,7.08-8.92,11.36"/><path class="cls-2" d="M434,84.47l-9.62,11.62-23.62,28.55-16.56,20"/><path class="cls-2" d="M387,71.38c-25.72,45.75-53.16,91.77-78.86,138.75"/><path class="cls-2" d="M404.63,40.4c-3.51,5.92-7.05,12.12-10.41,18.31"/><path class="cls-2" d="M319.65,128.31c-4.37,10.94-7.91,22.45-11.45,33.07-5.31,13.27-10.62,27.43-14.87,40.8"/><path class="cls-2" d="M352.6,35.81c-9,23.79-17,48.57-25.91,72.71"/><path class="cls-2" d="M298.11,74.2c-7.61,41.16-12.92,81.87-20.78,122.73"/><path class="cls-2" d="M306.82,22.79c-1.28,12-4.82,22.65-5.86,34.63"/><path class="cls-2" d="M260.08,103.3c.32,29.76.32,60.73.59,91.24"/><path class="cls-2" d="M259.4,0c.12,26.85.12,53.4.52,79.56"/><path class="cls-2" d="M220,64.78Q232.8,130,243.85,195.07"/><path class="cls-2" d="M199.6,123.81c10.06,24.59,18.37,49.52,27.77,74.71"/><path class="cls-2" d="M169.3,42.28c3,5.36,4,11.59,7.12,17.83,6.23,17.66,12.47,34.28,18.25,50.44"/><path class="cls-2" d="M160.57,117.51c16.89,28.82,34.55,57.9,51.17,87.27"/><path class="cls-2" d="M122.4,52.43c6.24,8.72,9.35,17,15.59,25.34,5.19,9.35,9.35,17.66,14.7,26.31"/><path class="cls-2" d="M122.4,125.45C133.84,138.37,144.46,150.76,156,164c14.16,16.82,27.44,32.75,41.47,49.63"/><path class="cls-2" d="M95,93.25c5.2,7.06,11.4,12.37,16.69,19.62"/><path class="cls-2" d="M127.79,177.62c18.44,16.5,38.8,30.66,57.11,47.26"/><path class="cls-2" d="M48.83,112.28c5.36,4.85,11.56,9.27,16.87,14.58,16.81,15,35.4,27.44,52.36,42.71"/><path class="cls-2" d="M78.06,183.31c32.77,17.89,64.63,36.48,96.43,54.8"/><path class="cls-2" d="M32.31,157.31c6.83,4.07,13.92,8.49,21.82,12.4"/><path class="cls-2" d="M96.14,227.87c23.54,7.85,46.55,17.59,70.41,25.08"/><path class="cls-2" d="M.18,193.68C25,203,50.65,211.82,76.37,220.82"/></g><path class="cls-3" d="M250.37,85.84S240,93.06,238.26,93.06c-2.15,0-7.62-7.61-10-12.89a4.52,4.52,0,0,1-.39-1.75c0-.59,1.37-1.57,2-2C236.5,72.75,257,61.23,259.35,58.3c3.52-4.3,6.45-9.57,8.2-9.57,3.91,0,15.24,7.81,15.24,10.35,0,1.56-4.89,9-6.64,14.26-3.71,11.33-23.63,89.25-26.95,100.77a4.42,4.42,0,0,1-4.3,3.52c-2.73,0-16.21-5.86-16.21-10C228.69,164.15,246.27,99.51,250.37,85.84Z"/><path class="cls-4" d="M282.17,175.77c-4.52,0-11.45-7.66-11.45-11.06,0-3.21,4.19-4.45,4.19-4.45s6.21-10.93,8.44-14.6a2.65,2.65,0,0,1,2.09-1.5c.85,0,3.21,1.83,3.21,3,0,6.34,2.88,12.76,2.88,17.67,0,2.48-2.16,5.3-2.16,5.3,2.81-1.31,5.63-3.47,8.83-9.36,0,0,.59-1.18,1.44-1.18a1.54,1.54,0,0,1,1.64,1.38,7,7,0,0,1-.85,2.29C296.83,169.81,290.09,175.77,282.17,175.77Zm-5.17-10c0,2.75,2.62,5.83,4,5.83,2.23,0,3.8-3.21,3.8-5.57,0-4.71-1.64-9.48-1.64-13C283.15,153,277,162.61,277,165.75Z"/><path class="cls-4" d="M306,134.47c1,0,4.45,2,4.45,2.95a6.05,6.05,0,0,1-.26,1.5c-.26.85-1,3.47-1.83,6.74h5.49c.4,0,.79.2.79.59,0,.85-.72,3.21-1.77,3.21h-5.5c-2.09,8-4.58,17.73-4.58,18.85,0,1.83,1.25,3.53,2.69,3.53,2,0,5.43-5.17,8.64-11.06,0,0,.58-1.18,1.44-1.18a1.53,1.53,0,0,1,1.63,1.38,7,7,0,0,1-.85,2.29c-3.6,6.54-6.81,12.5-11.52,12.5-3.14,0-8.64-2.88-8.64-6.09,0-2.36,2.36-11.85,4.65-20.22h-1.77a.72.72,0,0,1-.72-.66c0-.78.66-3.14,1.71-3.14h1.83l2.68-9.82C304.81,134.86,305.4,134.47,306,134.47Z"/><path class="cls-5" d="M182.57,198.47a1,1,0,0,1,1,.87,4.37,4.37,0,0,1-.54,1.45c-2.29,4.16-4.36,7.94-7.35,7.94-1.87,0-4.37-1.5-4.7-2.66,0,0-2.49,2.66-4.61,2.66-1.62,0-4.7-2.2-4.7-4.15,0-5.49,4.78-15.38,8.19-15.38,2.24,0,5,2,5,2,1.08,0,3.15.16,3.15,1.2,0,1.29-2.9,10.35-2.9,12.42,0,.88.54,1.42,1,1.42,1.25,0,3.45-3.29,5.49-7C181.66,199.21,182,198.47,182.57,198.47Zm-11.13-6.4c-2.25,0-5.45,8.18-5.45,12.17a1.67,1.67,0,0,0,1.42,1.75c.83,0,2.45-1.21,3.61-3.62a44.45,44.45,0,0,0,2.49-8.93C173.51,192.78,172.1,192.07,171.44,192.07Z"/><path class="cls-5" d="M183.32,207.77c-.13.54-.29,1-.87,1s-2.7-1-2.7-1.79c0-1.08,3.2-14,4.07-16.87a1.31,1.31,0,0,1,1.33-.87c.7,0,2.24,2.12,2.24,2.12s2.78-2.12,5.28-2.12c1.2,0,3.28,1.71,3.28,3.24,0,2-2.78,10.18-2.78,12.38,0,.79.58,1.42,1,1.42,1.24,0,3.44-3.29,5.48-7,0,0,.37-.74.91-.74a1,1,0,0,1,1,.87,4.37,4.37,0,0,1-.54,1.45c-2.28,4.16-4.32,7.94-7.31,7.94-1.41,0-4.61-1.54-4.61-3,0-2.66,2.66-11,2.66-12.59a1,1,0,0,0-1.13-1,5.53,5.53,0,0,0-4.11,3C185.6,197.89,183.61,206.57,183.32,207.77Z"/><path class="cls-5" d="M201.35,207.77c-.12.54-.29,1-.87,1s-2.7-1-2.7-1.79c0-1.08,3.2-14,4.07-16.87a1.32,1.32,0,0,1,1.33-.87c.71,0,2.24,2.12,2.24,2.12s2.79-2.12,5.28-2.12c1.21,0,3.28,1.71,3.28,3.24,0,2-2.78,10.18-2.78,12.38,0,.79.58,1.42,1,1.42,1.24,0,3.45-3.29,5.48-7,0,0,.38-.74.92-.74a1,1,0,0,1,1,.87,4.37,4.37,0,0,1-.54,1.45c-2.29,4.16-4.33,7.94-7.32,7.94-1.41,0-4.61-1.54-4.61-3,0-2.66,2.66-11,2.66-12.59a1,1,0,0,0-1.12-1,5.53,5.53,0,0,0-4.12,3C203.64,197.89,201.64,206.57,201.35,207.77Z"/><path class="cls-5" d="M220.84,189.2c.62,0,2.82,1.25,2.82,1.87a4.1,4.1,0,0,1-.16,1c-.5,1.87-3.2,11.26-3.2,12.79,0,.79.58,1.42,1,1.42,1.24,0,3.45-3.29,5.48-7,0,0,.38-.74.92-.74a1,1,0,0,1,1,.87,4.37,4.37,0,0,1-.54,1.45c-2.28,4.16-4.32,7.94-7.31,7.94-1.41,0-4.61-1.54-4.61-3,0-2.66,2.95-13,3.61-15.63C220.09,189.45,220.46,189.2,220.84,189.2Zm.46-4.24c0-1.58.83-3.65,2.2-3.65,1,0,2.32.7,2.32,1.74,0,1.58-.87,3.66-2.2,3.66C222.58,186.71,221.3,186,221.3,185Z"/><path class="cls-5" d="M234.34,205.32c-2,1.87-3.86,3.41-5.61,3.41-.95,0-3.44-1.7-3.44-2.87,0-1.49,2.86-13,3.69-15.79.17-.62.54-.87.92-.87.62,0,2.82,1.25,2.82,1.87a4.1,4.1,0,0,1-.16,1c-.42,1.41-3.24,11.42-3.24,13.09a.83.83,0,0,0,.7.74c.46,0,1.46-1.41,1.46-1.41a.79.79,0,0,1-.29-.62,3.6,3.6,0,0,1,2.9-2.7c1.67-2.58,3.24-7.57,3.91-11,.12-.63.29-.92,1-.92s2.66,1.12,2.66,2.16c0,1.37-2.79,8.69-5.24,11.64a3.9,3.9,0,0,0,2.08.74c3.07,0,5.11-4.53,5.11-4.53s.37-.74.91-.74a1,1,0,0,1,1,.87,4.37,4.37,0,0,1-.54,1.45s-2.49,5.11-6.6,5.11A16.81,16.81,0,0,1,234.34,205.32Z"/><path class="cls-5" d="M247.31,202.25a4.07,4.07,0,0,0,4.28,3.95c2.2,0,4.86-2.37,7.18-7,0,0,.38-.74.92-.74a1,1,0,0,1,1,.87,4.37,4.37,0,0,1-.54,1.45c-2.33,4.57-5.49,7.94-9.39,7.94-3,0-7.81-2.91-7.81-5.94,0-6.52,4.73-13.59,8.31-13.59,2.65,0,5.4,2.12,5.4,3.78,0,2.91-2.91,8.65-5.61,8.65a14.27,14.27,0,0,1-3.74-.59C247.31,201.46,247.31,201.87,247.31,202.25Zm6-9.47a1.38,1.38,0,0,0-1-1c-1.78,0-4.28,4.86-4.61,7.6C251.13,199.34,253.33,194.6,253.33,192.78Z"/><path class="cls-5" d="M274.19,199.21s.37-.74.91-.74a1,1,0,0,1,1,.87,4.37,4.37,0,0,1-.54,1.45c-2.28,4.16-4.36,7.94-7.35,7.94-1.87,0-4.57-1.58-4.57-3.2,0-3.24,2.24-9.35,2.24-11.26,0-.46-2.08-.87-2.08-.87s-1.7,3.53-3.4,6.9c0,0-.54,1-1,1-.33,0-1-.37-1-.83a3.47,3.47,0,0,1,.41-1.29c1.42-2.74,3.12-6.85,3.12-6.85s-1.7-1-1.7-2.41c0-1.16,1.66-4.4,2.57-4.4,1.21,0,2.91,1.08,2.91,2s-.62,1.91-.62,3,5.15,1.46,5.15,3.2c0,1.37-2.57,8.89-2.57,11.26,0,.46.62,1.21,1,1.21C269.87,206.24,272.15,203,274.19,199.21Z"/><path class="cls-5" d="M278.84,208.73c-2.86,0-7.27-4.86-7.27-7s2.66-2.83,2.66-2.83,3.95-6.94,5.36-9.26a1.69,1.69,0,0,1,1.33-1c.54,0,2,1.16,2,1.91,0,4,1.83,8.1,1.83,11.22a6.85,6.85,0,0,1-1.38,3.37c1.79-.83,3.58-2.21,5.61-5.95,0,0,.38-.74.92-.74a1,1,0,0,1,1,.87,4.37,4.37,0,0,1-.54,1.45C288.15,205,283.87,208.73,278.84,208.73Zm-3.28-6.36c0,1.75,1.66,3.7,2.54,3.7,1.41,0,2.41-2,2.41-3.53,0-3-1-6-1-8.27C279.47,194.27,275.56,200.38,275.56,202.37Z"/><path class="cls-5" d="M308.76,198.47a1,1,0,0,1,1,.87,4.37,4.37,0,0,1-.54,1.45c-2.29,4.16-4.36,7.94-7.36,7.94-1.87,0-4.36-1.5-4.69-2.66,0,0-2.49,2.66-4.61,2.66-1.62,0-4.7-2.2-4.7-4.15,0-5.49,4.78-15.38,8.19-15.38,2.24,0,5,2,5,2,1.08,0,3.16.16,3.16,1.2,0,1.29-2.91,10.35-2.91,12.42,0,.88.54,1.42,1,1.42,1.25,0,3.45-3.29,5.49-7C307.85,199.21,308.22,198.47,308.76,198.47Zm-11.14-6.4c-2.24,0-5.44,8.18-5.44,12.17a1.67,1.67,0,0,0,1.41,1.75c.83,0,2.46-1.21,3.62-3.62a44.45,44.45,0,0,0,2.49-8.93C299.7,192.78,298.29,192.07,297.62,192.07Z"/><path class="cls-5" d="M323.26,199.21s.37-.74.91-.74a1,1,0,0,1,1,.87,4.37,4.37,0,0,1-.54,1.45c-2.28,4.16-4.36,7.94-7.35,7.94-1.87,0-4.57-1.58-4.57-3.2,0-3.24,2.24-9.35,2.24-11.26,0-.46-2.08-.87-2.08-.87s-1.7,3.53-3.4,6.9c0,0-.54,1-1,1-.33,0-1-.37-1-.83a3.41,3.41,0,0,1,.42-1.29c1.41-2.74,3.11-6.85,3.11-6.85s-1.7-1-1.7-2.41c0-1.16,1.66-4.4,2.57-4.4,1.21,0,2.91,1.08,2.91,2s-.62,1.91-.62,3,5.15,1.46,5.15,3.2c0,1.37-2.57,8.89-2.57,11.26,0,.46.62,1.21,1,1.21C318.94,206.24,321.22,203,323.26,199.21Z"/><path class="cls-5" d="M337.55,211.8c0,.71-.95,1.87-1.57,1.87s-1.5-.95-3.33-1.33a48.31,48.31,0,0,1-2.28,6.9,4.83,4.83,0,0,1-3.62,1.95c-2.2,0-5.28-2.65-5.28-4.07,0-3.11,4.37-5.69,8.11-6.77l1.2-4.32c-.62.62-2.82,2.7-4.44,2.7s-4.45-2-4.45-3c0-2.66,2.95-13,3.61-15.63.17-.62.54-.87.92-.87.62,0,2.82,1.25,2.82,1.87a4.1,4.1,0,0,1-.16,1c-.5,1.87-3.16,11.13-3.16,12.67a1.47,1.47,0,0,0,1.12,1.16c1.5,0,4.07-3.24,4.49-4.9l2.82-10.89c.17-.62.54-.87.92-.87.62,0,2.82,1.25,2.82,1.87a4.1,4.1,0,0,1-.16,1c-.5,1.87-4.7,18.11-4.7,18.11C335.56,210.39,337.55,211.26,337.55,211.8Zm-8.6.79c-2.49.92-4.78,3.08-4.78,4.74,0,.5.92,1.21,1.46,1.21a2.16,2.16,0,0,0,1.79-1.33C327.75,216.5,329,212.59,329,212.59Z"/><path class="cls-4" d="M489.48,282.35H10.87l-3-3v-39l3-3H489.48l3,3v39Z"/><path class="cls-6" d="M46.47,264.86c0,1.25.49,1.84,2,2.05s5.4,0,7.09-.91c2.25-1.22,3.89,1.48,1,2.78-2.19,1-6.34,1-9,.7a3.73,3.73,0,0,1-3.61-3.87c.06-2.57.16-4.59.29-7.63a15.08,15.08,0,0,0-.16-3.28,1.47,1.47,0,1,1,2.91-.1,21.85,21.85,0,0,1-.1,3.25c0,.65-.08,1.24-.1,1.79a28.8,28.8,0,0,0,4.75-1.38A7.61,7.61,0,0,0,53.74,257c1.38-1.17,3.69.57,2.23,2.11a8.06,8.06,0,0,1-2.64,1.35,37.15,37.15,0,0,1-6.73,1.81C46.55,263.12,46.52,263.92,46.47,264.86Zm12.05-7.92a2.72,2.72,0,0,1,0-5.43,2.72,2.72,0,1,1,0,5.43Zm0-4a1.31,1.31,0,0,0-1.3,1.33,1.29,1.29,0,0,0,1.3,1.3,1.31,1.31,0,0,0,1.32-1.3A1.33,1.33,0,0,0,58.52,252.91Z"/><path class="cls-6" d="M72.31,262.52c-1.79,1.2-3.32-1.17-1.51-2.26a19.15,19.15,0,0,0,5.64-6,8.37,8.37,0,0,0,1-2.13c.47-1.74,3.07-1.28,2.78.44a4.28,4.28,0,0,1-.39,1.14c1.25-.21,2.6-.52,3.77-.6,1.81-.1,3.42,1.17,2.44,2.86-4.18,7.17-8,12.18-15,14.91-2.23.85-3.24-1.79-1-2.52,5.48-1.85,9.74-6.52,12.73-12.16.26-.51,0-.62-.36-.62a39.9,39.9,0,0,0-4.16.65A26.64,26.64,0,0,1,72.31,262.52Z"/><path class="cls-6" d="M110,261c-.36,3.72-3.61,8.21-8.51,10.13-2.52,1-3-1.89-1.23-2.47,4.13-1.29,6.76-5.11,7-7.76a1.76,1.76,0,0,0-.31-1.2,1.44,1.44,0,0,1-.18-.38c-1.59.18-3.07.38-4.21.51-1.48.16-2.39.45-3.22.5a1.31,1.31,0,1,1,0-2.62c.94-.08,2.13-.06,3.28-.19,2-.2,6.33-.7,9-.93a15.66,15.66,0,0,1,3.69-.21c1.17.16,1.61.55,1.59,1.3s-.6,1.27-1.72,1.27c-1.58,0-3-.1-4.47,0-.28,0-.57,0-.88,0A3.61,3.61,0,0,1,110,261Zm-.39-6.65c-1.53.11-3,.26-4.15.39a21.72,21.72,0,0,1-3.07.24c-1.66,0-2.07-2.42,0-2.5a24.84,24.84,0,0,0,2.58-.05l4.59-.46c.47-.06.83-.16,1.2-.24a4.52,4.52,0,0,1,1.27-.15c2,.07,2.39,2.46,0,2.62Z"/><path class="cls-6" d="M135.75,263.69a23.37,23.37,0,0,1-4.57,3.58c-1.94,1.2-3.09-1.09-1.58-1.81,2.93-1.46,7.06-5.17,8.21-8.39.46-1.35,3-.63,2.23,1a8.93,8.93,0,0,1-.91,1.61c-.47.63-.91,1.23-1.38,1.8a.66.66,0,0,1,.11.2,4.46,4.46,0,0,1,.1,1.87c-.08,1.43-.05,4.16,0,6.13a1.29,1.29,0,0,1-1.17,1.43c-.62.08-1.17-.39-1.17-1.3,0-1.94.21-4.33.13-6.07Z"/><path class="cls-6" d="M157.65,270.86c-2.26,1.35-4.11-1.25-1.74-2.44a10.83,10.83,0,0,0,6.18-8.11,7.18,7.18,0,0,0,0-2.36c-.32-1.61,2.62-2.18,3-.26a5.51,5.51,0,0,1,.06,1.07,13.15,13.15,0,0,0,4.44-3.46c.44-.6.52-.91-.47-.86-3.27.13-7.45.71-8.62.86a18.36,18.36,0,0,1-3.56.34,1.36,1.36,0,1,1,.18-2.7c1.12,0,2.34-.13,3.43-.21s5.48-.49,9.66-.73c2.91-.15,4,2,2.18,4.18a16.72,16.72,0,0,1-6.52,5,1.43,1.43,0,0,1-1.09,0A14.64,14.64,0,0,1,157.65,270.86Z"/><path class="cls-6" d="M196.21,267.33h0a1.45,1.45,0,0,1,1.64,1.42,1.42,1.42,0,0,1-1.56,1.41h-.1c-.7,0-1.74-.06-2.76-.06-1.24,0-2.49,0-3.14.06a1.43,1.43,0,1,1-.13-2.83h.13c.29,0,.81,0,1.2,0s.59-.15.59-.62c0-2.91.08-7,.08-9.58,0-1.1,0-1.9,0-2.24,0-.8-.29-1.22-1.15-1.24h-.62a1.43,1.43,0,0,1-1.58-1.54,1.36,1.36,0,0,1,1.35-1.48h.1c.31,0,.65,0,1,0s.68,0,.91,0h.24a2.58,2.58,0,0,1,2.77,2.7v.06c0,.46-.07,1.22-.07,2.18,0,2.15-.11,5.32-.11,8.65,0,.8,0,1.63,0,2.44,0,.39.13.65.54.65Z"/><path class="cls-6" d="M231.27,268.18v.06c0,1.79-1.38,3.4-4.75,3.4-2.31,0-3.25-.37-3.25-1.51a1.14,1.14,0,0,1,1.17-1.19,1.57,1.57,0,0,1,.29,0,11,11,0,0,0,1.74.18c1.58,0,2.26-.59,2.26-1.48,0-11-.06-12.7-.11-14.25a1.39,1.39,0,0,0-1.5-1.51c-1.69-.05-3.36-.08-5-.08-1.89,0-3.81,0-5.76.08a1.13,1.13,0,0,0-1.25,1.27v.52c0,1.43,0,3.12,0,4.91,0,4.28-.31,9.12-2.44,12.23a1.79,1.79,0,0,1-1.45.86,1.28,1.28,0,0,1-1.33-1.2,1.33,1.33,0,0,1,.26-.75c2.11-3,2.5-7.32,2.5-11.22,0-2-.11-3.87-.13-5.45V253c0-2.16,1-3.25,3.37-3.3s4.29-.08,6.39-.08c1.84,0,3.69,0,5.74.08a3.12,3.12,0,0,1,3.09,3c.08,3.82,0,9.07.08,11.93Zm-4.39-8.05-5.22-.05-5,.05h0a1,1,0,0,1-1-1,1,1,0,0,1,1-1.07h0l3.87.05,0-1.71-3.17,0h0a.93.93,0,0,1-1-1,1,1,0,0,1,1-1.07h0l3.17,0V253.3a1.19,1.19,0,0,1,2.36,0v1.12l3.3,0h0a1,1,0,0,1,0,2.05h0l-3.3,0,0,1.71,4-.05h0a1,1,0,0,1,0,2.05Zm-10.18,4.7c0-.36,0-.72,0-1.27a2.06,2.06,0,0,1,2-2c.6,0,1.51-.05,2.47-.05,1.14,0,2.36,0,3.14.05a2.26,2.26,0,0,1,2.24,1.84c0,.55.05.91.05,1.28s0,.72-.05,1.27a2.42,2.42,0,0,1-2.34,2.29c-.7,0-1.72.05-2.73.05s-2,0-2.73-.05a2.25,2.25,0,0,1-2.07-2.26C216.73,265.48,216.7,265.17,216.7,264.83Zm4.88-1.35c-.72,0-1.43,0-1.81,0-.71.05-.78.52-.78,1.32,0,.16,0,.29,0,.6,0,.68.31.7,2.81.7s2.49-.08,2.49-1.27C224.31,263.48,224.31,263.48,221.58,263.48Z"/><path class="cls-6" d="M252.54,265.66v5.2a1.28,1.28,0,0,1-2.52,0v-5.2H240.2a1.11,1.11,0,0,1-1.24-1.11,1.2,1.2,0,0,1,1.24-1.22h3.56c0-.86,0-1.82.08-3.67,0-1.16.73-2.49,2.86-2.49H250v-3h-4.13a23,23,0,0,1-3.17,3.95,1.64,1.64,0,0,1-1.09.5,1.3,1.3,0,0,1-1.3-1.22,1.2,1.2,0,0,1,.44-.91,19.78,19.78,0,0,0,4.71-7.12,1.2,1.2,0,0,1,1.14-.78,1.43,1.43,0,0,1,1.48,1.27,5.14,5.14,0,0,1-.86,2h11.48a1.14,1.14,0,1,1,0,2.28h-6.18v3l4.75,0a1.21,1.21,0,0,1,1.3,1.17,1.14,1.14,0,0,1-1.27,1.11h0c-1.5,0-3.17-.05-4.75-.05v3.9h7.69a1.15,1.15,0,0,1,1.19,1.19,1.11,1.11,0,0,1-1.19,1.14Zm-2.52-6.2H247.5c-.88,0-1.12.44-1.14,1,0,.81-.05,1.93-.08,2.89H250Z"/><path class="cls-6" d="M270.17,269.48c-1.92.73-3.24-1.71-1-2.47a22.43,22.43,0,0,0,11.61-10c.21-.41.08-.6-.24-.57-1.27.13-4.23,1-4.9,1.12A12,12,0,0,1,273,258a1.34,1.34,0,1,1,0-2.68,16.59,16.59,0,0,0,2.31-.28c.94-.16,4.08-1,6.26-1.2s3.35,1.33,2.49,2.83a35.61,35.61,0,0,1-3.27,4.89c2.44,1.11,5.64,2.8,7.12,4.93a1.6,1.6,0,0,1-.24,2.16,1.29,1.29,0,0,1-1.92-.24,21.34,21.34,0,0,0-6.57-5A24.25,24.25,0,0,1,270.17,269.48Z"/><path class="cls-6" d="M316,267.9a33.8,33.8,0,0,1-4.42-3.51c-1.84-1.61-4-3.48-5.27-4.44-1.14-.86-1.69-.75-2.67,0-1.59,1.27-2.86,2.28-4.13,3.14a1.49,1.49,0,1,1-1.43-2.57c.62-.37,2.49-1.46,4-2.6,2.08-1.51,3.58-1.45,5.58,0,1,.76,2.86,2.26,4.73,3.72a60.7,60.7,0,0,0,5.4,3.79,1.39,1.39,0,0,1,.31,2.05A1.66,1.66,0,0,1,316,267.9Zm-3.38-9.2a2.79,2.79,0,0,1,0-5.58,2.79,2.79,0,1,1,0,5.58Zm0-4.15a1.36,1.36,0,0,0-1.35,1.37,1.35,1.35,0,0,0,1.35,1.36,1.37,1.37,0,0,0,1.38-1.36A1.39,1.39,0,0,0,312.58,254.55Z"/><path class="cls-6" d="M331,262.37a8.92,8.92,0,0,0-3.22-1.33c-1.55-.26-1-2.73.86-2.36a13.07,13.07,0,0,1,3.79,1.32,1.36,1.36,0,0,1,.55,1.92A1.32,1.32,0,0,1,331,262.37Zm-.13,8c-2.18.26-2.52-2.44-.85-2.7a8.62,8.62,0,0,0,2-.65c4.78-2.33,9.06-6.8,11.87-11.92.88-1.63,3.48-.49,2.28,1.56a32.77,32.77,0,0,1-12.78,12.83A6,6,0,0,1,330.86,270.36Zm3.28-12.62a9.87,9.87,0,0,0-2.86-2c-1.45-.59-.39-2.91,1.38-2.13a14.14,14.14,0,0,1,3.4,2.16,1.36,1.36,0,0,1,.1,2A1.32,1.32,0,0,1,334.14,257.74Z"/><path class="cls-6" d="M364.34,262.31c.73,2.37,1.64,5.15,2.31,6.91a1.33,1.33,0,0,1-.6,1.82,1.2,1.2,0,0,1-1.56-.94c-.57-1.84-1.4-4.59-2.15-7l-1.48.6a10.44,10.44,0,0,1-1.77.62,1.15,1.15,0,1,1-.62-2.2c.83-.24,1.09-.29,1.61-.47.23-.08.83-.29,1.61-.6l-.44-1.32a12.93,12.93,0,0,0-.5-1.3,1.14,1.14,0,0,1,2.13-.81,13,13,0,0,1,.47,1.41c.11.36.24.77.37,1.24,1.81-.67,3.92-1.43,5.42-1.87a1.48,1.48,0,0,1,1.93,2,10.17,10.17,0,0,1-2.86,4.39c-1.43,1.24-2.94-.63-1.64-1.64a6.12,6.12,0,0,0,1.79-2.23C367.2,261.25,365.69,261.79,364.34,262.31Z"/><path class="cls-6" d="M382.67,267.12a11.83,11.83,0,0,0,5.92-7.56,6.6,6.6,0,0,0,.13-2.31,1.42,1.42,0,1,1,2.84-.1,6.93,6.93,0,0,1-.34,2.72,15.83,15.83,0,0,1-6.91,9.43C382.47,270.47,380.8,268.16,382.67,267.12Zm12.6.7c-1.77.7-2.57-.55-2.31-1.79a45.36,45.36,0,0,0,.6-8,9.52,9.52,0,0,0-.21-1.72,1.44,1.44,0,0,1,2.78-.72,7,7,0,0,1,.05,2.7c0,1-.37,4.67-.37,5.55,0,.6.06.65.65.32,2-1.15,4.39-3.93,5.82-6.37,1-1.71,3.3-.07,2.29,1.59C402.57,262.57,398.54,266.52,395.27,267.82Z"/><path class="cls-6" d="M431.39,260.37a1.64,1.64,0,0,1-.91-.29,47.63,47.63,0,0,1-8.1-7.64c-.28-.33-.52-.49-.75-.49s-.47.16-.73.49a51.77,51.77,0,0,1-8.13,8.26,1.88,1.88,0,0,1-1.22.47,1.43,1.43,0,0,1-1.45-1.38,1.31,1.31,0,0,1,.72-1.14,34.81,34.81,0,0,0,8.24-8,3,3,0,0,1,2.36-1.27,3.46,3.46,0,0,1,2.55,1.27,38,38,0,0,0,8.46,7.15,1.13,1.13,0,0,1,.6,1A1.69,1.69,0,0,1,431.39,260.37ZM412.3,270.73a1.16,1.16,0,0,1-1.24-1.17,1.15,1.15,0,0,1,1.24-1.17H415v-6.73a1.22,1.22,0,0,1,1.3-1.24,1.21,1.21,0,0,1,1.27,1.24v6.73h2.94V256.78a1.3,1.3,0,0,1,2.6,0v4.81h5.29a1.1,1.1,0,0,1,1.12,1.17,1.08,1.08,0,0,1-1.12,1.16h-5.29v4.47h7.79a1.13,1.13,0,0,1,1.14,1.2,1.1,1.1,0,0,1-1.14,1.14Z"/><path class="cls-6" d="M451.23,253v2c.65,0,1.38,0,2.24,0a2.6,2.6,0,0,1,2.65,2.26c.05.8.05,2.15.05,3.5s0,2.7-.05,3.46a2.72,2.72,0,0,1-2.78,2.57c-1.48.05-2.24.07-3,.07s-1.61,0-3.3-.07a2.65,2.65,0,0,1-2.88-2.55c0-.86-.06-2.18-.06-3.48s0-2.57.06-3.3A2.51,2.51,0,0,1,447,255c.73,0,1.32-.06,1.92-.06V253h-7.69a1.13,1.13,0,0,1-1.22-1.15,1.2,1.2,0,0,1,1.22-1.22h18.08a1.19,1.19,0,0,1,0,2.37Zm-8.64,4.33c0,1.64-.06,3.69-.06,5.64,0,1.4,0,2.78.06,3.84s.41,1.61,1.63,1.66c1.53.06,3.69.08,5.87.08s4.31,0,5.79-.08a1.6,1.6,0,0,0,1.74-1.58c.05-1.3.08-2.83.08-4.41,0-1.77,0-3.56-.08-5.07v-.05a1.17,1.17,0,0,1,1.28-1.14,1.24,1.24,0,0,1,1.32,1.19c0,1.14,0,2.88,0,4.7s0,3.74,0,5.27a3.5,3.5,0,0,1-3.69,3.43c-1.79.08-4.26.11-6.67.11s-4.78,0-6.39-.11a3.12,3.12,0,0,1-3.38-3.37c0-1.67,0-3.54,0-5.43,0-1.59,0-3.17,0-4.68a1.19,1.19,0,0,1,1.22-1.22,1.21,1.21,0,0,1,1.28,1.2Zm6.28-.44-1.3,0a1,1,0,0,0-1.14,1c0,.41,0,1.09,0,1.84h2.47Zm0,4.78H446.4c0,.86,0,1.64,0,2.13,0,1,.39,1,2.44,1Zm5-1.87c0-.75,0-1.4,0-1.87,0-1-.64-1.06-2.57-1.06v2.93Zm-1.14,5c.67,0,1.09-.23,1.11-1,0-.46,0-1.24,0-2.1h-2.6v3.17Z"/></g></g></svg>