<?xml version="1.0" encoding="UTF-8"?><svg id="_イヤー_2" xmlns="http://www.w3.org/2000/svg" viewBox="0 0 126.2 126.2"><defs><style>.cls-1{fill:#fff;}.cls-2{fill:#7bccd4;}</style></defs><g id="_イヤー_1-2"><g><circle class="cls-2" cx="63.1" cy="63.1" r="63.1"/><g><path class="cls-1" d="M29.35,42.56c-.23,.1-2,.96-2.55,.96-.78,0-1.25-.62-1.25-1.25,0-.44,.23-.91,.81-1.12,1.09-.42,2.05-.78,2.99-1.2v-4.19h-2.37c-.75,0-1.14-.57-1.14-1.14s.39-1.14,1.14-1.14h2.37l-.03-4.16c0-.81,.62-1.22,1.25-1.22s1.22,.39,1.22,1.22v4.16h1.79c.78,0,1.14,.57,1.14,1.14s-.36,1.14-1.14,1.14h-1.79v3.02c1.25-.7,1.4-.78,1.64-.78,.57,0,1.04,.52,1.04,1.12,0,.7-.39,.94-2.7,2.18v2.96c0,.42,.08,2.78,.1,3.69v.1c0,1.64-1.07,2.91-3.33,2.91-1.38,0-2.34-.23-2.34-1.4,0-.6,.36-1.2,1.01-1.2,.08,0,.16,0,.23,.03,.23,.05,.55,.1,.83,.1,.55,0,1.07-.18,1.07-.86v-5.1Zm10.53-13.29c0-.73,.62-1.09,1.25-1.09s1.25,.36,1.25,1.09v4.86c.86,0,1.72,.03,2.5,.05,1.69,.05,2.7,1.25,2.76,2.57,.05,1.33,.08,3.38,.08,5.43s-.03,4.13-.08,5.54c-.05,1.43-1.14,2.68-2.76,2.76-1.04,.05-2.24,.08-3.43,.08-1.38,0-2.73-.03-3.82-.08-1.77-.08-2.65-1.2-2.7-2.73-.05-1.3-.08-3.15-.08-5.04,0-2.16,.03-4.39,.08-5.9,.03-1.25,.78-2.55,2.73-2.63,.68-.03,1.43-.05,2.24-.05v-4.86Zm.08,7.02c-.62,0-1.2,0-1.66,.03-.78,.03-1.09,.52-1.12,1.12-.03,.88-.08,2.13-.08,3.48h2.86v-4.63Zm0,6.76h-2.86c0,1.59,.05,3.09,.08,4.16,.05,1.14,.91,1.14,2.78,1.14v-5.3Zm5.36-2.13c0-1.38,0-2.65-.03-3.51-.05-1.12-.55-1.14-2.96-1.14v4.65h2.99Zm-2.99,2.13v5.3c2.29,0,2.94-.03,2.96-1.17,.03-1.01,.03-2.55,.03-4.13h-2.99Z"/><path class="cls-1" d="M52.7,50.88c-.73,0-1.38-.68-1.38-1.35,0-.34,.18-.7,.62-.96,1.33-.78,2.47-1.69,3.33-2.73,.03-1.4,.1-2.63,.1-3.8,0-.91-.03-1.2-1.09-1.2-.42,0-.75,.03-1.14,.03-.36,0-1.25-.03-1.25-1.12,0-.57,.36-1.17,1.04-1.17h1.59c1.85,0,3.28,.21,3.28,2.44,0,1.51-.1,3.28-.1,4.94,.31,.39,.7,.75,1.17,1.09-.13-.18-.18-.42-.18-.62,0-.42,.26-.81,.83-.86,1.2-.1,2.7-.6,3.93-1.48,.16-.13,.34-.18,.49-.18,.49,0,.91,.55,.91,1.07,0,.29-.1,.57-.39,.75-1.25,.86-3.04,1.61-4.5,1.82h-.31c.99,.52,2.44,1.04,6.08,1.04,2.7,0,5.64-.29,7.62-.44h.13c.81,0,1.25,.62,1.25,1.25s-.39,1.22-1.3,1.3c-1.64,.16-4.08,.31-6.55,.31-6.55,0-8.58-1.17-10.45-3.2-.73,.83-2.7,3.07-3.72,3.07Zm3.02-17.03c-.68-1.04-1.82-1.85-2.55-2.26-.36-.21-.52-.49-.52-.81,0-.57,.62-1.17,1.33-1.17,.78,0,4.03,2,4.03,3.33,0,.75-.7,1.46-1.4,1.46-.31,0-.65-.16-.88-.55Zm10.17,9.72l-6.92,.05c-.65,0-.96-.47-.96-.91,0-.47,.31-.91,.96-.91l3.46,.03v-1.59l-2.5,.03c-.65,0-.96-.44-.96-.91,0-.44,.31-.88,.96-.88l2.5,.03v-.73c0-.36,.23-.6,.55-.73-.29,.03-.57,.03-.86,.03-2.57,0-3.56-.34-3.56-2.81,0-.83,.03-2.16,2.05-2.16h1.51c.75,0,.99,0,.99-.6,0-.36-.05-.47-.42-.49h-3.33c-.62,0-.91-.44-.91-.91s.31-.94,.88-.96h.88c1.22,0,2.63,.03,3.04,.03,1.38,0,1.9,.57,1.9,2.42,0,2.21-.6,2.21-4.06,2.21-.42,0-.47,.18-.47,.86s.21,.68,1.53,.68c.88,0,1.56-.05,1.61-.86,.03-.57,.49-.83,.96-.83,.57,0,1.14,.34,1.14,.96,0,1.04-.52,2.08-2.11,2.34,.44,.08,.86,.34,.86,.83v.73l1.25,.03h1.2v-.75c0-.49,.42-.78,.88-.83-1.77-.34-1.77-1.56-1.77-2.37,0-1.17,.03-2.47,2.03-2.47h1.59c.94,0,1.01-.03,1.01-.6,0-.36-.05-.47-.42-.49h-3.51c-.6,0-.88-.44-.88-.88,0-.49,.31-.96,.88-.99h.88c1.27,0,2.76,.03,3.17,.03,1.51,0,1.92,.7,1.92,2.42,0,2.16-.49,2.21-4.19,2.21-.49,0-.49,.23-.49,.83,0,.65,.1,.7,1.64,.7,1.3,0,1.9-.05,1.95-.99,.03-.57,.49-.83,.96-.83,.57,0,1.17,.36,1.17,.99,0,2.39-2.26,2.6-4.06,2.6-.39,0-.75-.03-1.12-.05,.31,.13,.55,.36,.55,.73v.73l2.7-.03c.65,0,.96,.44,.96,.88,0,.47-.31,.91-.96,.91l-2.7-.03v1.59l3.8-.03c.65,0,.96,.44,.96,.91,0,.44-.31,.91-.96,.91l-7.2-.05Zm1.2-3.33l-1.2-.03-1.25,.03v1.59l1.27,.03,1.17-.03v-1.59Zm-.16,5.41c-.34-.18-.47-.47-.47-.75,0-.52,.47-1.04,1.01-1.04,.16,0,.34,.05,.49,.13,1.38,.78,3.17,1.3,4.5,1.4,.65,.05,.94,.49,.94,.96,0,.57-.44,1.17-1.17,1.17-.96,0-3.54-.83-5.3-1.87Z"/><path class="cls-1" d="M94.38,49.71h-.26c-5.64-.52-9.2-4.42-9.2-8.42,0-1.01,.23-2.78,1.87-4.76,.08-.1,.13-.18,.13-.23,0-.03-.03-.05-.05-.05-.05,0-.16,.05-.26,.1-4.08,2.11-4.58,2.26-5.15,2.26-.96,0-1.59-.68-1.59-1.4,0-.52,.36-1.09,1.2-1.35,.55-.18,2.03-.62,2.81-.91,1.22-.44,3.38-1.12,5.95-2.13,1.92-.75,4.47-1.61,6.89-1.61,1.3,0,1.77,.6,1.77,1.27,0,1.33-1.09,1.61-2.08,1.61-.18,0-.39,0-.6-.03-.21-.03-.42-.03-.62-.03-4.03,0-7.98,3.43-7.98,6.92,0,3.12,2.96,5.77,7.05,5.77,1.3,0,1.92,.75,1.92,1.53,0,.73-.6,1.46-1.79,1.46Zm2.24-9.13c-.36-.42-1.66-1.38-2.21-1.61-.47-.18-.65-.49-.65-.81,0-.52,.49-1.01,1.14-1.01,.34,0,3.51,1.2,3.51,2.55,0,.65-.57,1.22-1.12,1.22-.23,0-.47-.1-.68-.34Zm2.99-2.16c-.36-.42-1.72-1.33-2.26-1.53-.47-.18-.68-.49-.68-.81,0-.52,.49-1.04,1.14-1.04,.42,0,3.54,1.12,3.54,2.47,0,.65-.52,1.22-1.09,1.22-.21,0-.44-.1-.65-.31Z"/><path class="cls-1" d="M24.74,80.39c.55-4.88,.87-9.39,1.15-16.75h16.98l-.97,4.83h-14.26c-.14,2.76-.32,4.79-.74,9.66,2.16-2.21,4.6-3.22,7.54-3.22,5.84,0,10.12,4.28,10.12,10.03,0,6.3-4.97,10.9-11.92,10.9-5.34,0-9.38-2.76-9.38-6.49,0-1.7,1.33-3.04,2.9-3.04s2.85,1.43,2.85,3.36c0,.32-.05,.55-.14,1.01-.05,.23-.05,.32-.05,.41,0,1.7,1.61,2.81,3.86,2.81,4.09,0,6.3-2.94,6.3-8.46,0-5.11-2.07-7.91-5.8-7.91-2.81,0-4.55,.92-6.95,3.54l-1.52-.69Z"/><path class="cls-1" d="M56.66,93.38c-.78,0-1.27-.68-1.27-1.33,0-.52,.31-1.01,1.01-1.17,3.07-.7,5.93-2.24,8.4-4.13-.65-.49-1.35-.86-2.16-1.22-.49-.21-.7-.55-.7-.86,0-.57,.62-1.17,1.4-1.17,.73,0,2.55,.91,3.38,1.64,2.21-2.05,3.8-4.21,3.8-4.55,0-.26,0-.34-1.77-.34-1.17,0-2.6,.05-3.77,.08-1.72,1.85-6.42,6.24-8.01,6.24-.81,0-1.35-.62-1.35-1.25,0-.39,.21-.78,.73-1.04,2.76-1.4,6.45-4.65,8.4-7.64,.29-.42,.65-.6,1.04-.6,.7,0,1.43,.6,1.43,1.27,0,.21-.08,.42-.49,.96,1.53-.03,3.2-.08,4.29-.08,1.43,0,2.42,.81,2.42,1.9,0,.47-.18,.99-.55,1.53-1.56,2.26-3.85,4.68-6.53,6.73,.83-.03,1.74-.03,2.65-.03,1.48,0,2.99,.03,4.34,.05,1.56,.05,2.63,1.17,2.71,2.31,.05,.75,.05,1.56,.05,2.37s0,1.61-.05,2.42c-.08,1.38-1.14,2.52-2.83,2.6-1.25,.05-2.57,.08-3.85,.08-1.46,0-2.89-.03-4.11-.08-1.85-.08-2.81-1.12-2.89-2.57-.03-.62-.05-1.33-.05-2.05,0-.86,.03-1.74,.05-2.44-1.92,1.09-4.86,2.37-5.72,2.37Zm16.95-.16c0-.6,0-1.2-.03-1.72-.03-.62-.36-.99-1.2-1.01-1.01-.03-2.16-.05-3.28-.05s-2.21,.03-3.15,.05c-.78,.03-1.17,.55-1.2,1.04-.03,.42-.03,.88-.03,1.38,0,.65,0,1.35,.03,1.95,.03,1.09,.44,1.09,4.37,1.09,1.12,0,2.26-.03,3.3-.05,.65-.03,1.12-.31,1.14-1.04,.03-.49,.03-1.07,.03-1.64Z"/><path class="cls-1" d="M102.86,87.3l-5.51-.05c.34,1.09,.81,2.13,1.4,3.12,.94-.57,1.92-1.38,2.52-2,.23-.23,.49-.34,.73-.34,.65,0,1.27,.62,1.27,1.25,0,.86-1.59,1.82-3.38,2.73,.96,1.22,2.16,2.29,3.48,3.07,.44,.26,.62,.62,.62,1.01,0,.62-.55,1.27-1.3,1.27-1.27,0-3.95-2.91-5.59-6.32l.03,.73,.18,3.72v.16c0,1.38-.81,3.09-3.69,3.09-1.74,0-2.68-.31-2.68-1.33,0-.6,.39-1.17,1.07-1.17,.08,0,.16,0,.23,.03,.49,.1,.99,.18,1.4,.18,.81,0,1.35-.31,1.35-1.51l-.03-7.7-4.71,.05c-.21,0-.39-.03-.55-.1,.05,.13,.1,.29,.1,.42,0,.62-.55,1.17-1.12,1.17-.26,0-.52-.13-.75-.42-.29-.39-.68-.86-1.04-1.25,.03,4.06,.13,10.58,.13,10.58v.03c0,.73-.65,1.09-1.27,1.09s-1.27-.36-1.27-1.09v-.03l.1-9.39c-.68,1.2-1.43,2.31-2.21,3.28-.31,.39-.7,.55-1.07,.55-.65,0-1.25-.55-1.25-1.17,0-.31,.13-.62,.42-.91,1.33-1.35,3.04-3.8,4.11-6.21v-.6l-2.52,.05h-.05c-.78,0-1.14-.52-1.14-1.09s.42-1.2,1.2-1.2h2.5l-.08-4.29v-.03c0-.75,.65-1.12,1.3-1.12s1.25,.36,1.25,1.12v.03s-.05,1.98-.08,4.29h1.77c.75,0,1.14,.57,1.14,1.14s-.39,1.14-1.12,1.14h-.03l-1.79-.03c0,.62-.03,1.25-.03,1.82,.1,0,.21,.03,.31,.08,.6,.29,1.53,.99,2.05,1.48-.03-.08-.03-.18-.03-.26,0-.49,.36-1.01,1.01-1.01h4.71l-.03-1.4h-3.54c-.7,0-1.04-.44-1.04-.88,0-.49,.36-.99,1.04-.99h3.54v-1.27h-4.26c-.73,0-1.07-.44-1.07-.91,0-.49,.36-.99,1.07-.99h2.18c-.39-.57-.65-.91-1.25-1.4-.26-.21-.36-.44-.36-.68,0-.55,.57-1.01,1.2-1.01,.81,0,2.6,1.77,2.6,2.57,0,.18-.05,.36-.13,.52h1.82c.52-.83,1.07-1.82,1.38-2.6,.21-.47,.57-.65,.96-.65,.65,0,1.35,.52,1.35,1.14,0,.26-.08,.55-1.17,2.11h2.91c.7,0,1.04,.47,1.04,.94,0,.49-.34,.96-1.04,.96h-5.07l.03,1.27h3.93c.68,0,.99,.47,.99,.94s-.31,.94-.99,.94h-3.93l.03,1.4h5.69c.65,0,.96,.49,.96,.96,0,.49-.31,.96-.94,.96h-.03Zm-13.6,9.13c-.75,0-1.2-.65-1.2-1.27,0-.44,.23-.86,.75-1.04,1.77-.6,2.89-1.22,4.39-2.29,.18-.13,.39-.21,.57-.21,.55,0,.99,.47,.99,1.04,0,.31-.16,.65-.52,.96-1.33,1.09-4.19,2.81-4.99,2.81Zm2.78-5.12c-.75-.78-1.51-1.01-2.05-1.27-.36-.18-.49-.44-.49-.73,0-.52,.52-1.09,1.12-1.09,.42,0,3.22,.88,3.22,2.18,0,.62-.52,1.25-1.09,1.25-.23,0-.47-.1-.7-.34Z"/></g></g></g></svg>