<?xml version="1.0" encoding="UTF-8"?><svg id="_イヤー_2" xmlns="http://www.w3.org/2000/svg" viewBox="0 0 126.2 126.2"><defs><style>.cls-1{fill:#fff;}.cls-2{fill:#7bccd4;}</style></defs><g id="_イヤー_1-2"><g><circle class="cls-2" cx="63.1" cy="63.1" r="63.1"/><g><path class="cls-1" d="M52.01,49.7c.67-5.94,1.06-11.42,1.4-20.38h20.66l-1.18,5.88h-17.36c-.17,3.36-.39,5.82-.9,11.76,2.63-2.69,5.6-3.92,9.18-3.92,7.11,0,12.32,5.21,12.32,12.21,0,7.67-6.05,13.27-14.5,13.27-6.5,0-11.42-3.36-11.42-7.9,0-2.07,1.62-3.7,3.53-3.7s3.47,1.74,3.47,4.09c0,.39-.06,.67-.17,1.23-.06,.28-.06,.39-.06,.5,0,2.07,1.96,3.42,4.7,3.42,4.98,0,7.67-3.58,7.67-10.3,0-6.22-2.52-9.63-7.06-9.63-3.42,0-5.54,1.12-8.46,4.31l-1.85-.84Z"/><path class="cls-1" d="M40.48,94.9c-.78,0-1.27-.68-1.27-1.33,0-.52,.31-1.01,1.01-1.17,3.07-.7,5.93-2.24,8.4-4.13-.65-.49-1.35-.86-2.16-1.22-.49-.21-.7-.55-.7-.86,0-.57,.62-1.17,1.4-1.17,.73,0,2.55,.91,3.38,1.64,2.21-2.05,3.8-4.21,3.8-4.55,0-.26,0-.34-1.77-.34-1.17,0-2.6,.05-3.77,.08-1.72,1.85-6.42,6.24-8.01,6.24-.81,0-1.35-.62-1.35-1.25,0-.39,.21-.78,.73-1.04,2.76-1.4,6.45-4.65,8.4-7.64,.29-.42,.65-.6,1.04-.6,.7,0,1.43,.6,1.43,1.27,0,.21-.08,.42-.49,.96,1.53-.03,3.2-.08,4.29-.08,1.43,0,2.42,.81,2.42,1.9,0,.47-.18,.99-.55,1.53-1.56,2.26-3.85,4.68-6.53,6.73,.83-.03,1.74-.03,2.65-.03,1.48,0,2.99,.03,4.34,.05,1.56,.05,2.63,1.17,2.71,2.31,.05,.75,.05,1.56,.05,2.37s0,1.61-.05,2.42c-.08,1.38-1.14,2.52-2.83,2.6-1.25,.05-2.57,.08-3.85,.08-1.46,0-2.89-.03-4.11-.08-1.85-.08-2.81-1.12-2.89-2.57-.03-.62-.05-1.33-.05-2.05,0-.86,.03-1.74,.05-2.44-1.92,1.09-4.86,2.37-5.72,2.37Zm16.95-.16c0-.6,0-1.2-.03-1.72-.03-.62-.36-.99-1.2-1.01-1.01-.03-2.16-.05-3.28-.05s-2.21,.03-3.15,.05c-.78,.03-1.17,.55-1.2,1.04-.03,.42-.03,.88-.03,1.38,0,.65,0,1.35,.03,1.95,.03,1.09,.44,1.09,4.37,1.09,1.12,0,2.26-.03,3.3-.05,.65-.03,1.12-.31,1.14-1.04,.03-.49,.03-1.07,.03-1.64Z"/><path class="cls-1" d="M86.68,88.82l-5.51-.05c.34,1.09,.81,2.13,1.4,3.12,.94-.57,1.92-1.38,2.52-2,.23-.23,.49-.34,.73-.34,.65,0,1.27,.62,1.27,1.25,0,.86-1.59,1.82-3.38,2.73,.96,1.22,2.16,2.29,3.48,3.07,.44,.26,.62,.62,.62,1.01,0,.62-.55,1.27-1.3,1.27-1.27,0-3.95-2.91-5.59-6.32l.03,.73,.18,3.72v.16c0,1.38-.81,3.09-3.69,3.09-1.74,0-2.68-.31-2.68-1.33,0-.6,.39-1.17,1.07-1.17,.08,0,.16,0,.23,.03,.49,.1,.99,.18,1.4,.18,.81,0,1.35-.31,1.35-1.51l-.03-7.7-4.71,.05c-.21,0-.39-.03-.55-.1,.05,.13,.1,.29,.1,.42,0,.62-.55,1.17-1.12,1.17-.26,0-.52-.13-.75-.42-.29-.39-.68-.86-1.04-1.25,.03,4.06,.13,10.58,.13,10.58v.03c0,.73-.65,1.09-1.27,1.09s-1.27-.36-1.27-1.09v-.03l.1-9.39c-.68,1.2-1.43,2.31-2.21,3.28-.31,.39-.7,.55-1.07,.55-.65,0-1.25-.55-1.25-1.17,0-.31,.13-.62,.42-.91,1.33-1.35,3.04-3.8,4.11-6.21v-.6l-2.52,.05h-.05c-.78,0-1.14-.52-1.14-1.09s.42-1.2,1.2-1.2h2.5l-.08-4.29v-.03c0-.75,.65-1.12,1.3-1.12s1.25,.36,1.25,1.12v.03s-.05,1.98-.08,4.29h1.77c.75,0,1.14,.57,1.14,1.14s-.39,1.14-1.12,1.14h-.03l-1.79-.03c0,.62-.03,1.25-.03,1.82,.1,0,.21,.03,.31,.08,.6,.29,1.53,.99,2.05,1.48-.03-.08-.03-.18-.03-.26,0-.49,.36-1.01,1.01-1.01h4.71l-.03-1.4h-3.54c-.7,0-1.04-.44-1.04-.88,0-.49,.36-.99,1.04-.99h3.54v-1.27h-4.26c-.73,0-1.07-.44-1.07-.91,0-.49,.36-.99,1.07-.99h2.18c-.39-.57-.65-.91-1.25-1.4-.26-.21-.36-.44-.36-.68,0-.55,.57-1.01,1.2-1.01,.81,0,2.6,1.77,2.6,2.57,0,.18-.05,.36-.13,.52h1.82c.52-.83,1.07-1.82,1.38-2.6,.21-.47,.57-.65,.96-.65,.65,0,1.35,.52,1.35,1.14,0,.26-.08,.55-1.17,2.11h2.91c.7,0,1.04,.47,1.04,.94,0,.49-.34,.96-1.04,.96h-5.07l.03,1.27h3.93c.68,0,.99,.47,.99,.94s-.31,.94-.99,.94h-3.93l.03,1.4h5.69c.65,0,.96,.49,.96,.96,0,.49-.31,.96-.94,.96h-.03Zm-13.6,9.13c-.75,0-1.2-.65-1.2-1.27,0-.44,.23-.86,.75-1.04,1.77-.6,2.89-1.22,4.39-2.29,.18-.13,.39-.21,.57-.21,.55,0,.99,.47,.99,1.04,0,.31-.16,.65-.52,.96-1.33,1.09-4.19,2.81-4.99,2.81Zm2.78-5.12c-.75-.78-1.51-1.01-2.05-1.27-.36-.18-.49-.44-.49-.73,0-.52,.52-1.09,1.12-1.09,.42,0,3.22,.88,3.22,2.18,0,.62-.52,1.25-1.09,1.25-.23,0-.47-.1-.7-.34Z"/></g></g></g></svg>