<?xml version="1.0" encoding="UTF-8"?><svg id="_レイヤー_2" xmlns="http://www.w3.org/2000/svg" viewBox="0 0 260.04 77.63"><defs><style>.cls-1{fill:#fff;}.cls-2{fill:#1b1464;}</style></defs><g id="_レイヤー_1-2"><g><polygon class="cls-2" points="142.35 26.36 146.07 6.25 136.95 16.89 130.53 6.25 124.11 16.89 114.98 6.25 118.7 26.36 142.35 26.36"/><rect class="cls-2" x="118.95" y="27.88" width="23.15" height="4.22"/><circle class="cls-2" cx="113.97" cy="3.72" r="1.86"/><circle class="cls-2" cx="146.07" cy="3.72" r="1.86"/><circle class="cls-2" cx="130.53" cy="1.86" r="1.86"/></g><path class="cls-2" d="M254.04,77.63H6c0-3.31-2.69-6-6-6v-26.41c3.31,0,6-2.69,6-6H254.04c0,3.31,2.69,6,6,6v26.41c-3.31,0-6,2.69-6,6Z"/><g><path class="cls-1" d="M98.37,58.19v8.32c0,.56-.4,.82-.82,.82s-.82-.26-.82-.82v-1.78c-1.54,.5-5.22,1.64-6,1.64-.54,0-.84-.42-.84-.84,0-.36,.22-.74,.72-.82,.58-.08,1.22-.22,1.88-.36v-6.16h-1.82c-.56,0-.82-.38-.82-.76,0-.42,.28-.84,.82-.84h15.88c.52,0,.78,.4,.78,.8s-.26,.8-.78,.8h-8.18Zm.7-2.4c-1.34,0-2.66-.02-3.92-.04-2.06-.02-2.16-1.08-2.16-2.96s.16-2.8,2.1-2.88c.8-.04,2.02-.06,3.32-.06,1.5,0,3.08,.02,4.12,.06,1.86,.06,1.9,1.52,1.9,2.72,0,1.76-.02,3.06-2.04,3.12-1.12,.02-2.22,.04-3.32,.04Zm-2.34,2.4h-2.6v1h2.6v-1Zm0,2.2h-2.6v.98h2.6v-.98Zm0,2.2h-2.6v1.36c.96-.24,1.9-.48,2.6-.68v-.68Zm-2-9.1c0,.12,.02,.22,.02,.32,.04,.52,.28,.64,.9,.64,.96,.02,2.2,.02,3.44,.02,.92,0,1.86,0,2.72-.02,.48,0,.8-.18,.82-.66,0-.1,.02-.2,.02-.3h-7.92Zm7.92-1.24c0-.1-.02-.2-.02-.28-.04-.48-.2-.66-.82-.68-.74-.02-1.82-.04-2.9-.04-1.32,0-2.62,.02-3.28,.04-.68,.02-.88,.34-.88,.74v.22h7.9Zm-3.22,8.4c-.46,0-.68-.38-.68-.74,0-.4,.22-.78,.68-.8,.82-.02,1.6-.02,2.38-.02s1.54,0,2.36,.04c1.02,.04,1.34,.64,1.34,1.28,0,1.44-1.7,3.6-1.8,3.72,.84,.52,1.76,.92,2.76,1.16,.44,.12,.66,.46,.66,.8,0,.48-.38,.98-1,.98-.84,0-2.6-.94-3.62-1.7-1.12,.96-2.46,1.6-2.92,1.6-.52,0-.88-.44-.88-.88,0-.3,.16-.6,.56-.74,.8-.3,1.46-.66,2-1.08-1-1-1.82-2.26-1.82-2.66,0-.44,.5-.8,.96-.8,.22,0,.42,.1,.54,.32,.4,.78,.9,1.44,1.48,2,.62-.8,1.12-1.98,1.12-2.26,0-.18-.16-.26-.3-.26h-.64c-.94,0-1.92,.02-3.16,.04h-.02Z"/><path class="cls-1" d="M113.63,66.49l.24-9.72c-.78,1.06-1.2,1.58-1.82,1.58-.52,0-.94-.42-.94-.88,0-.22,.08-.44,.28-.66,1.86-1.98,3.02-3.9,4.04-6.56,.16-.4,.48-.58,.82-.58,.54,0,1.14,.44,1.14,1.02,0,.14-.04,.54-1.58,3.16l-.26,12.64c-.02,.58-.52,.88-1,.88s-.92-.28-.92-.86v-.02Zm9-4.38c1.02-.02,2.58-.04,2.84-.04,.92,0,1.34,.44,1.34,.96,0,.62-.58,1.14-1.88,2.06,1.02,.28,2.32,.42,3.92,.44,.42,0,.66,.36,.66,.74,0,.42-.3,.86-.94,.86-2.08,0-3.9-.38-5.32-1.06-2.22,1.1-4.2,1.3-4.7,1.3s-.84-.44-.84-.86c0-.34,.22-.68,.76-.7,1.18-.06,2.3-.3,3.28-.66-.46-.36-.84-.78-1.14-1.22-1.52,1.22-3.2,2.14-3.68,2.14s-.8-.38-.8-.74c0-.26,.16-.52,.5-.66,1.56-.66,3.26-1.88,4.64-3.2-.86-.16-1.18-.64-1.18-1.52,0-1.32,0-1.76,.72-1.76,.36,0,.74,.2,.74,.58,0,.4-.02,.9-.02,1.06,0,.34,.12,.46,1,.46,1.18,0,1.62,0,1.62-.7,0-.4,.32-.58,.66-.58,.38,0,.78,.22,.78,.6,0,1.76-.88,1.82-2.46,1.92-.04,.1-.12,.22-.24,.34l-.26,.24Zm4.84-3.58c-.02-.44-.16-.54-.74-.54-1.04-.02-2.38-.02-3.72-.02,.24,.16,.94,.7,.94,1.2,0,.38-.36,.7-.7,.7-.18,0-.36-.08-.48-.28-.28-.46-.7-.82-.88-.98-.12-.1-.18-.22-.18-.34,0-.1,.04-.2,.12-.3-1.06,0-2.06,0-2.86,.02-.78,.02-.78,.24-.8,.58v.68c0,.42-.44,.66-.86,.66s-.84-.22-.84-.68v-.64c0-.74,.06-1.74,1.7-1.76h.62c0-1.1,0-2.38,.02-3.16,.02-.74,.48-1.06,1.72-1.12,.2,0,.58-.02,1.04-.02,.04-.16,.08-.36,.14-.62l-3.5,.02c-.48,0-.74-.36-.74-.72s.26-.72,.74-.72h9.82c.52,0,.78,.36,.78,.72s-.26,.72-.78,.72l-4.5-.02c-.06,.22-.14,.44-.2,.62,.76,0,1.48,0,1.78,.02,1.12,.04,1.74,.44,1.76,1.14,.02,.38,.02,.88,.02,1.44s0,1.14-.02,1.7h.5c.84,.02,1.82,.34,1.86,1.34v1.02c-.04,.46-.46,.7-.88,.7-.1,0-.2-.02-.28-.04,.3,.32,.58,.64,.58,1,0,.44-.38,.78-.78,.78-.24,0-.48-.12-.66-.4-.34-.56-.8-1.08-1.22-1.42-.18-.16-.26-.32-.26-.48,0-.34,.34-.64,.74-.64,.36,0,.64,.26,1,.58v-.74Zm-10.66,2.88c0-.22,.12-.46,.44-.62,.34-.18,.98-.8,1.14-1.26,.12-.32,.34-.44,.58-.44,.4,0,.8,.32,.8,.7,0,.66-1.34,2.3-2.18,2.3-.44,0-.78-.34-.78-.68Zm8.42-7.32c0-.08-.02-.16-.02-.22-.04-.36-.04-.4-2.42-.4-2.02,0-2.32,0-2.32,.4l-.02,.22h4.78Zm0,.76h-4.78v.62h4.78v-.62Zm-.02,1.36h-4.76l.02,.6c.78-.02,1.56-.02,2.36-.02s1.6,0,2.36,.02l.02-.6Zm-.76,7.2c0-.06-.04-.1-.1-.1h-.04c-.08,.02-1.4,.02-2.38,.02,.36,.42,.78,.8,1.32,1.1,.28-.18,1.2-.78,1.2-1.02Z"/><path class="cls-1" d="M149.97,55.15l-5.74-.1c2.12,1.64,4.26,2.44,6.62,3.26,.46,.16,.64,.46,.64,.78,0,.52-.5,1.08-1.16,1.08-.52,0-3.78-1.34-6.86-3.92l.04,1.42v.02c0,.5-.46,.76-.94,.76s-.94-.26-.94-.76v-.02l.04-1.36c-2.44,2.18-6.26,4.12-6.98,4.12-.58,0-1-.44-1-.9,0-.32,.2-.64,.66-.82,2.52-.98,4.44-1.94,6.42-3.64l-5.54,.08h-.02c-.56,0-.84-.4-.84-.82s.3-.82,.86-.82l6.44,.02-.02-1.3c-1.22,.06-2.42,.1-3.46,.1-.48,0-.92-.02-1.3-.02-.64-.02-.98-.44-.98-.86,0-.38,.3-.76,.92-.76h.04c.62,.02,1.26,.04,1.92,.04,2.64,0,5.48-.2,8.3-.74,.1-.02,.18-.02,.26-.02,.58,0,.86,.44,.86,.86,0,.36-.2,.7-.6,.78-1.1,.2-2.58,.38-4.12,.5l-.02,1.42,6.5-.02c.54,0,.82,.42,.82,.82,0,.42-.28,.82-.8,.82h-.02Zm-4.76,7.66c-.16,.44-.56,.62-.94,.62-.44,0-.86-.24-.86-.64,0-.08,0-.16,.04-.24,.02-.08,.64-1.62,.64-2.08,0-.2-.18-.28-.34-.28l-1.42-.02c-.78,6.2-6.64,7.16-6.72,7.16-.56,0-.96-.48-.96-.94,0-.34,.2-.68,.68-.8,3.06-.82,4.9-2.68,5.2-5.42-.6,0-1.22,0-1.82,.02h-.02c-.5,0-.74-.36-.74-.74s.26-.76,.76-.76c.96-.02,2.18-.04,3.36-.04,.84,0,1.66,.02,2.34,.02,.88,.02,1.6,.36,1.6,1.22,0,.04,0,.24-.24,1.18h.74c1.08,0,2.28,.22,2.28,1.6,0,.1,0,.2-.02,.32-.24,1.94-.98,4.12-4.18,4.12-.7,0-1.44-.12-2.14-.3-.54-.14-.78-.52-.78-.88,0-.46,.34-.9,.9-.9,.1,0,.2,0,.32,.04,.52,.16,1.16,.32,1.78,.32,.76,0,1.48-.26,1.88-1.02,.24-.52,.38-1.16,.38-1.46,0-.26-.16-.38-.52-.38h-1.1l-.1,.28Z"/><path class="cls-1" d="M167.75,64.73c1.4,.5,2.74,.76,4.22,.82,.64,.02,.94,.46,.94,.88,0,.48-.36,.96-1.04,.96-.44,0-2.98-.26-5.32-1.32-.36-.16-.5-.42-.5-.7,0-.24,.1-.46,.26-.64h-3.4c.14,.16,.24,.38,.24,.62,0,.28-.16,.58-.5,.74-1.44,.68-3.96,1.38-5.36,1.38-.7,0-1.06-.46-1.06-.9s.34-.88,1-.9c1.52-.06,2.9-.32,4.3-.94l-.44-.02c-1.4-.02-2.08-.6-2.12-1.36-.04-.66-.06-1.28-.06-1.9,0-.7,.02-1.38,.06-2.06,.04-.62,.54-1.34,2.08-1.36,1.32-.02,2.7-.02,4.14-.02,1.04,0,2.12,0,3.2,.02,1.18,.02,1.92,.54,1.96,1.26,.04,.7,.08,1.48,.08,2.24,0,.6-.02,1.22-.06,1.8-.04,.74-.72,1.36-2.06,1.38l-.56,.02Zm3.04-9.3v-.88c0-.82-.06-1.1-1.08-1.12-1.6-.02-3.7-.04-5.72-.04-1.68,0-3.3,.02-4.52,.04-1.08,.02-1.1,.42-1.12,.88v1.08c0,.56-.48,.86-.96,.86s-.92-.28-.94-.88c0-.24-.02-.52-.02-.82,0-1.18,.02-2.5,2.14-2.52l1.48-.02c-.24-.3-.48-.56-.74-.84-.12-.14-.18-.28-.18-.4,0-.44,.54-.82,1.04-.82,.76,0,1.6,1.44,1.92,2.04,.52,0,1.04-.02,1.56-.02v-1.56c0-.66,.5-.98,.98-.98s.98,.32,.98,.98v1.56h1.66c.3-.52,.58-1.12,.76-1.58,.16-.42,.5-.6,.86-.6,.52,0,1.06,.4,1.06,.92,0,.12-.02,.36-.68,1.28,.46,0,.88,.04,1.32,.04,1.22,.02,2.08,.64,2.14,1.68,.02,.24,.04,.56,.04,.86,0,.88-.02,1.74-1.04,1.74-.48,0-.94-.3-.94-.86v-.02Zm-5.7-1.4c4.36,0,4.48,0,4.48,1.68s-.34,1.7-4.9,1.7-5.1,0-5.1-1.62c0-1.2,.16-1.74,2.02-1.74,1.1-.02,2.3-.02,3.5-.02Zm-4.36,6.9v.74h7.82c0-.26-.02-.5-.02-.74h-7.8Zm7.78-1.16c-.04-.62-.1-.62-3.86-.62-1.06,0-2.12,.02-3.06,.04-.6,.02-.8,.3-.82,.58v.12h7.74v-.12Zm0,2.94h-7.74v.2c.02,.42,.3,.56,.82,.58,.94,.02,1.98,.02,3.04,.02s2.12,0,3.1-.02c.5-.02,.76-.16,.78-.58v-.2Zm-1.46-7.5c-.76-.02-1.58-.02-2.42-.02s-1.68,0-2.48,.02c-.44,0-.64,.08-.64,.36v.3c0,.22,.18,.32,2.76,.32q3.38,0,3.38-.52c0-.26-.08-.46-.6-.46Z"/></g></g></svg>