<?xml version="1.0" encoding="UTF-8"?><svg id="_レイヤー_2" xmlns="http://www.w3.org/2000/svg" viewBox="0 0 455.06 148.52"><defs><style>.cls-1{fill:#fff;}.cls-2{fill:#1b1464;}</style></defs><g id="_レイヤー_1-2"><g><g><polygon class="cls-2" points="251.81 51.89 259.13 12.31 241.17 33.26 228.53 12.31 215.89 33.26 197.92 12.31 205.24 51.89 251.81 51.89"/><rect class="cls-2" x="205.74" y="54.89" width="45.57" height="8.32"/><circle class="cls-2" cx="195.93" cy="7.32" r="3.66"/><circle class="cls-2" cx="259.13" cy="7.32" r="3.66"/><circle class="cls-2" cx="228.53" cy="3.66" r="3.66"/></g><path class="cls-2" d="M446.06,148.52H9c0-4.97-4.03-9-9-9v-60.54c4.97,0,9-4.03,9-9H446.06c0,4.97,4.03,9,9,9v60.54c-4.97,0-9,4.03-9,9Z"/><g><path class="cls-1" d="M159.09,108.93v16.64c0,1.12-.8,1.64-1.64,1.64s-1.64-.52-1.64-1.64v-3.56c-3.08,1-10.44,3.28-12,3.28-1.08,0-1.68-.84-1.68-1.68,0-.72,.44-1.48,1.44-1.64,1.16-.16,2.44-.44,3.76-.72v-12.32h-3.64c-1.12,0-1.64-.76-1.64-1.52,0-.84,.56-1.68,1.64-1.68h31.75c1.04,0,1.56,.8,1.56,1.6s-.52,1.6-1.56,1.6h-16.36Zm1.4-4.8c-2.68,0-5.32-.04-7.84-.08-4.12-.04-4.32-2.16-4.32-5.92s.32-5.6,4.2-5.76c1.6-.08,4.04-.12,6.64-.12,3,0,6.16,.04,8.24,.12,3.72,.12,3.8,3.04,3.8,5.44,0,3.52-.04,6.12-4.08,6.24-2.24,.04-4.44,.08-6.64,.08Zm-4.68,4.8h-5.2v2h5.2v-2Zm0,4.4h-5.2v1.96h5.2v-1.96Zm0,4.4h-5.2v2.72c1.92-.48,3.8-.96,5.2-1.36v-1.36Zm-4-18.2c0,.24,.04,.44,.04,.64,.08,1.04,.56,1.28,1.8,1.28,1.92,.04,4.4,.04,6.88,.04,1.84,0,3.72,0,5.44-.04,.96,0,1.6-.36,1.64-1.32,0-.2,.04-.4,.04-.6h-15.84Zm15.84-2.48c0-.2-.04-.4-.04-.56-.08-.96-.4-1.32-1.64-1.36-1.48-.04-3.64-.08-5.8-.08-2.64,0-5.24,.04-6.56,.08-1.36,.04-1.76,.68-1.76,1.48v.44h15.8Zm-6.44,16.8c-.92,0-1.36-.76-1.36-1.48,0-.8,.44-1.56,1.36-1.6,1.64-.04,3.2-.04,4.76-.04s3.08,0,4.72,.08c2.04,.08,2.68,1.28,2.68,2.56,0,2.88-3.4,7.2-3.6,7.44,1.68,1.04,3.52,1.84,5.52,2.32,.88,.24,1.32,.92,1.32,1.6,0,.96-.76,1.96-2,1.96-1.68,0-5.2-1.88-7.24-3.4-2.24,1.92-4.92,3.2-5.84,3.2-1.04,0-1.76-.88-1.76-1.76,0-.6,.32-1.2,1.12-1.48,1.6-.6,2.92-1.32,4-2.16-2-2-3.64-4.52-3.64-5.32,0-.88,1-1.6,1.92-1.6,.44,0,.84,.2,1.08,.64,.8,1.56,1.8,2.88,2.96,4,1.24-1.6,2.24-3.96,2.24-4.52,0-.36-.32-.52-.6-.52h-1.28c-1.88,0-3.84,.04-6.32,.08h-.04Z"/><path class="cls-1" d="M189.61,125.53l.48-19.44c-1.56,2.12-2.4,3.16-3.64,3.16-1.04,0-1.88-.84-1.88-1.76,0-.44,.16-.88,.56-1.32,3.72-3.96,6.04-7.8,8.08-13.12,.32-.8,.96-1.16,1.64-1.16,1.08,0,2.28,.88,2.28,2.04,0,.28-.08,1.08-3.16,6.32l-.52,25.28c-.04,1.16-1.04,1.76-2,1.76s-1.84-.56-1.84-1.72v-.04Zm18-8.76c2.04-.04,5.16-.08,5.68-.08,1.84,0,2.68,.88,2.68,1.92,0,1.24-1.16,2.28-3.76,4.12,2.04,.56,4.64,.84,7.84,.88,.84,0,1.32,.72,1.32,1.48,0,.84-.6,1.72-1.88,1.72-4.16,0-7.8-.76-10.64-2.12-4.44,2.2-8.4,2.6-9.4,2.6s-1.68-.88-1.68-1.72c0-.68,.44-1.36,1.52-1.4,2.36-.12,4.6-.6,6.56-1.32-.92-.72-1.68-1.56-2.28-2.44-3.04,2.44-6.4,4.28-7.36,4.28s-1.6-.76-1.6-1.48c0-.52,.32-1.04,1-1.32,3.12-1.32,6.52-3.76,9.28-6.4-1.72-.32-2.36-1.28-2.36-3.04,0-2.64,0-3.52,1.44-3.52,.72,0,1.48,.4,1.48,1.16,0,.8-.04,1.8-.04,2.12,0,.68,.24,.92,2,.92,2.36,0,3.24,0,3.24-1.4,0-.8,.64-1.16,1.32-1.16,.76,0,1.56,.44,1.56,1.2,0,3.52-1.76,3.64-4.92,3.84-.08,.2-.24,.44-.48,.68l-.52,.48Zm9.68-7.16c-.04-.88-.32-1.08-1.48-1.08-2.08-.04-4.76-.04-7.44-.04,.48,.32,1.88,1.4,1.88,2.4,0,.76-.72,1.4-1.4,1.4-.36,0-.72-.16-.96-.56-.56-.92-1.4-1.64-1.76-1.96-.24-.2-.36-.44-.36-.68,0-.2,.08-.4,.24-.6-2.12,0-4.12,0-5.72,.04-1.56,.04-1.56,.48-1.6,1.16v1.36c0,.84-.88,1.32-1.72,1.32s-1.68-.44-1.68-1.36v-1.28c0-1.48,.12-3.48,3.4-3.52h1.24c0-2.2,0-4.76,.04-6.32,.04-1.48,.96-2.12,3.44-2.24,.4,0,1.16-.04,2.08-.04,.08-.32,.16-.72,.28-1.24l-7,.04c-.96,0-1.48-.72-1.48-1.44s.52-1.44,1.48-1.44h19.64c1.04,0,1.56,.72,1.56,1.44s-.52,1.44-1.56,1.44l-9-.04c-.12,.44-.28,.88-.4,1.24,1.52,0,2.96,0,3.56,.04,2.24,.08,3.48,.88,3.52,2.28,.04,.76,.04,1.76,.04,2.88s0,2.28-.04,3.4h1c1.68,.04,3.64,.68,3.72,2.68v2.04c-.08,.92-.92,1.4-1.76,1.4-.2,0-.4-.04-.56-.08,.6,.64,1.16,1.28,1.16,2,0,.88-.76,1.56-1.56,1.56-.48,0-.96-.24-1.32-.8-.68-1.12-1.6-2.16-2.44-2.84-.36-.32-.52-.64-.52-.96,0-.68,.68-1.28,1.48-1.28,.72,0,1.28,.52,2,1.16v-1.48Zm-21.32,5.76c0-.44,.24-.92,.88-1.24,.68-.36,1.96-1.6,2.28-2.52,.24-.64,.68-.88,1.16-.88,.8,0,1.6,.64,1.6,1.4,0,1.32-2.68,4.6-4.36,4.6-.88,0-1.56-.68-1.56-1.36Zm16.84-14.64c0-.16-.04-.32-.04-.44-.08-.72-.08-.8-4.84-.8-4.04,0-4.64,0-4.64,.8l-.04,.44h9.56Zm0,1.52h-9.56v1.24h9.56v-1.24Zm-.04,2.72h-9.52l.04,1.2c1.56-.04,3.12-.04,4.72-.04s3.2,0,4.72,.04l.04-1.2Zm-1.52,14.4c0-.12-.08-.2-.2-.2h-.08c-.16,.04-2.8,.04-4.76,.04,.72,.84,1.56,1.6,2.64,2.2,.56-.36,2.4-1.56,2.4-2.04Z"/><path class="cls-1" d="M262.28,102.85l-11.48-.2c4.24,3.28,8.52,4.88,13.24,6.52,.92,.32,1.28,.92,1.28,1.56,0,1.04-1,2.16-2.32,2.16-1.04,0-7.56-2.68-13.72-7.84l.08,2.84v.04c0,1-.92,1.52-1.88,1.52s-1.88-.52-1.88-1.52v-.04l.08-2.72c-4.88,4.36-12.52,8.24-13.96,8.24-1.16,0-2-.88-2-1.8,0-.64,.4-1.28,1.32-1.64,5.04-1.96,8.88-3.88,12.84-7.28l-11.08,.16h-.04c-1.12,0-1.68-.8-1.68-1.64s.6-1.64,1.72-1.64l12.88,.04-.04-2.6c-2.44,.12-4.84,.2-6.92,.2-.96,0-1.84-.04-2.6-.04-1.28-.04-1.96-.88-1.96-1.72,0-.76,.6-1.52,1.84-1.52h.08c1.24,.04,2.52,.08,3.84,.08,5.28,0,10.96-.4,16.6-1.48,.2-.04,.36-.04,.52-.04,1.16,0,1.72,.88,1.72,1.72,0,.72-.4,1.4-1.2,1.56-2.2,.4-5.16,.76-8.24,1l-.04,2.84,13-.04c1.08,0,1.64,.84,1.64,1.64,0,.84-.56,1.64-1.6,1.64h-.04Zm-9.52,15.32c-.32,.88-1.12,1.24-1.88,1.24-.88,0-1.72-.48-1.72-1.28,0-.16,0-.32,.08-.48,.04-.16,1.28-3.24,1.28-4.16,0-.4-.36-.56-.68-.56l-2.84-.04c-1.56,12.4-13.28,14.32-13.44,14.32-1.12,0-1.92-.96-1.92-1.88,0-.68,.4-1.36,1.36-1.6,6.12-1.64,9.8-5.36,10.4-10.84-1.2,0-2.44,0-3.64,.04h-.04c-1,0-1.48-.72-1.48-1.48s.52-1.52,1.52-1.52c1.92-.04,4.36-.08,6.72-.08,1.68,0,3.32,.04,4.68,.04,1.76,.04,3.2,.72,3.2,2.44,0,.08,0,.48-.48,2.36h1.48c2.16,0,4.56,.44,4.56,3.2,0,.2,0,.4-.04,.64-.48,3.88-1.96,8.24-8.36,8.24-1.4,0-2.88-.24-4.28-.6-1.08-.28-1.56-1.04-1.56-1.76,0-.92,.68-1.8,1.8-1.8,.2,0,.4,0,.64,.08,1.04,.32,2.32,.64,3.56,.64,1.52,0,2.96-.52,3.76-2.04,.48-1.04,.76-2.32,.76-2.92,0-.52-.32-.76-1.04-.76h-2.2l-.2,.56Z"/><path class="cls-1" d="M297.84,122.01c2.8,1,5.48,1.52,8.44,1.64,1.28,.04,1.88,.92,1.88,1.76,0,.96-.72,1.92-2.08,1.92-.88,0-5.96-.52-10.64-2.64-.72-.32-1-.84-1-1.4,0-.48,.2-.92,.52-1.28h-6.8c.28,.32,.48,.76,.48,1.24,0,.56-.32,1.16-1,1.48-2.88,1.36-7.92,2.76-10.72,2.76-1.4,0-2.12-.92-2.12-1.8s.68-1.76,2-1.8c3.04-.12,5.8-.64,8.6-1.88l-.88-.04c-2.8-.04-4.16-1.2-4.24-2.72-.08-1.32-.12-2.56-.12-3.8,0-1.4,.04-2.76,.12-4.12,.08-1.24,1.08-2.68,4.16-2.72,2.64-.04,5.4-.04,8.28-.04,2.08,0,4.24,0,6.4,.04,2.36,.04,3.84,1.08,3.92,2.52,.08,1.4,.16,2.96,.16,4.48,0,1.2-.04,2.44-.12,3.6-.08,1.48-1.44,2.72-4.12,2.76l-1.12,.04Zm6.08-18.6v-1.76c0-1.64-.12-2.2-2.16-2.24-3.2-.04-7.4-.08-11.44-.08-3.36,0-6.6,.04-9.04,.08-2.16,.04-2.2,.84-2.24,1.76v2.16c0,1.12-.96,1.72-1.92,1.72s-1.84-.56-1.88-1.76c0-.48-.04-1.04-.04-1.64,0-2.36,.04-5,4.28-5.04l2.96-.04c-.48-.6-.96-1.12-1.48-1.68-.24-.28-.36-.56-.36-.8,0-.88,1.08-1.64,2.08-1.64,1.52,0,3.2,2.88,3.84,4.08,1.04,0,2.08-.04,3.12-.04v-3.12c0-1.32,1-1.96,1.96-1.96s1.96,.64,1.96,1.96v3.12h3.32c.6-1.04,1.16-2.24,1.52-3.16,.32-.84,1-1.2,1.72-1.2,1.04,0,2.12,.8,2.12,1.84,0,.24-.04,.72-1.36,2.56,.92,0,1.76,.08,2.64,.08,2.44,.04,4.16,1.28,4.28,3.36,.04,.48,.08,1.12,.08,1.72,0,1.76-.04,3.48-2.08,3.48-.96,0-1.88-.6-1.88-1.72v-.04Zm-11.4-2.8c8.72,0,8.96,0,8.96,3.36s-.68,3.4-9.8,3.4-10.2,0-10.2-3.24c0-2.4,.32-3.48,4.04-3.48,2.2-.04,4.6-.04,7-.04Zm-8.72,13.8v1.48h15.64c0-.52-.04-1-.04-1.48h-15.6Zm15.56-2.32c-.08-1.24-.2-1.24-7.72-1.24-2.12,0-4.24,.04-6.12,.08-1.2,.04-1.6,.6-1.64,1.16v.24h15.48v-.24Zm0,5.88h-15.48v.4c.04,.84,.6,1.12,1.64,1.16,1.88,.04,3.96,.04,6.08,.04s4.24,0,6.2-.04c1-.04,1.52-.32,1.56-1.16v-.4Zm-2.92-15c-1.52-.04-3.16-.04-4.84-.04s-3.36,0-4.96,.04c-.88,0-1.28,.16-1.28,.72v.6c0,.44,.36,.64,5.52,.64q6.76,0,6.76-1.04c0-.52-.16-.92-1.2-.92Z"/></g></g></g></svg>