<?xml version="1.0" encoding="utf-8"?>
<!-- Generator: Adobe Illustrator 26.5.0, SVG Export Plug-In . SVG Version: 6.00 Build 0)  -->
<svg version="1.1" id="レイヤー_1" xmlns="http://www.w3.org/2000/svg" xmlns:xlink="http://www.w3.org/1999/xlink" x="0px"
	 y="0px" viewBox="0 0 35.2 36.4" style="enable-background:new 0 0 35.2 36.4;" xml:space="preserve">
<style type="text/css">
	.st0{fill:#4A2C06;}
</style>
<path id="Icon_awesome-instagram" class="st0" d="M17.6,8.9c-5.1,0.1-9.1,4.2-9,9.3c0,0,0,0,0,0c-0.1,5.1,3.9,9.2,9,9.3c0,0,0,0,0,0
	c5.1-0.1,9.1-4.2,9-9.3c0,0,0,0,0,0C26.7,13.1,22.7,9,17.6,8.9C17.6,8.9,17.6,8.9,17.6,8.9z M17.6,24.3c-3.4-0.1-6-2.9-5.9-6.3
	c0.1-3.2,2.7-5.8,5.9-5.9c3.4,0.1,6,2.9,5.9,6.3C23.4,21.6,20.8,24.2,17.6,24.3z M29.1,8.5c0,1.2-1,2.1-2.2,2c-1.2,0-2.1-1-2-2.2
	c0-1.1,1-2,2.1-2C28.2,6.3,29.1,7.3,29.1,8.5C29.1,8.5,29.1,8.5,29.1,8.5z M35.1,10.7c-0.1-2.9-0.8-5.5-2.8-7.6s-4.6-2.8-7.4-2.9
	C22,0,13.3,0,10.4,0.1C7.5,0.3,5,0.9,3,3.1s-2.7,4.7-2.8,7.6c-0.2,3-0.2,12,0,15c0.1,2.9,0.8,5.5,2.8,7.6s4.6,2.8,7.4,2.9
	c2.9,0.2,11.6,0.2,14.5,0c2.8-0.1,5.3-0.8,7.4-2.9c2.1-2.1,2.7-4.7,2.8-7.6C35.3,22.7,35.3,13.7,35.1,10.7L35.1,10.7z M31.4,28.9
	c-0.6,1.6-1.8,2.8-3.3,3.5c-2.3,1-7.8,0.7-10.4,0.7s-8.1,0.2-10.4-0.7c-1.5-0.6-2.8-1.9-3.3-3.5C3,26.5,3.2,20.9,3.2,18.2
	S3,9.9,3.9,7.5C4.5,5.9,5.7,4.7,7.2,4c2.3-1,7.8-0.7,10.4-0.7S25.7,3.1,28,4c1.5,0.6,2.8,1.9,3.3,3.5c0.9,2.4,0.7,8.1,0.7,10.7
	S32.3,26.6,31.4,28.9z"/>
</svg>
