<?xml version="1.0" encoding="UTF-8"?><svg xmlns="http://www.w3.org/2000/svg" viewBox="0 0 50.1 50.09"><defs><style>.e{fill:#fff;}</style></defs><g id="a"/><g id="b"><g id="c"><path id="d" class="e" d="M25.06,12.2c-7.09,0-12.84,5.75-12.84,12.84s5.75,12.84,12.84,12.84,12.84-5.75,12.84-12.84c.01-7.08-5.72-12.83-12.8-12.85-.02,0-.03,0-.05,0Zm0,21.2c-4.61,0-8.35-3.74-8.35-8.35s3.74-8.35,8.35-8.35,8.35,3.74,8.35,8.35c0,4.61-3.74,8.35-8.35,8.35h0ZM41.43,11.68c0,1.65-1.34,3-3,3-1.65,0-3-1.34-3-3s1.34-3,3-3c1.65,0,2.99,1.33,3,2.98,0,0,0,.01,0,.02h0Zm8.51,3.04c-.19-4.01-1.11-7.57-4.04-10.5C42.95,1.29,39.4,.37,35.39,.17,31.25-.06,18.85-.06,14.72,.17c-4,.19-7.55,1.11-10.5,4.04C1.27,7.14,.37,10.7,.17,14.71-.06,18.84-.06,31.24,.17,35.38c.19,4.01,1.11,7.57,4.04,10.5,2.94,2.93,6.48,3.85,10.5,4.04,4.14,.23,16.53,.23,20.67,0,4.01-.19,7.57-1.11,10.5-4.04,2.93-2.94,3.85-6.48,4.04-10.5,.23-4.14,.23-16.52,0-20.66h0Zm-5.34,25.1c-.86,2.18-2.58,3.9-4.76,4.76-3.3,1.31-11.12,1.01-14.77,1.01s-11.48,.29-14.77-1.01c-2.18-.86-3.9-2.58-4.76-4.76-1.31-3.3-1.01-11.12-1.01-14.77s-.29-11.48,1.01-14.77c.86-2.18,2.59-3.9,4.76-4.76,3.3-1.31,11.12-1.01,14.77-1.01s11.48-.29,14.77,1.01c2.18,.86,3.9,2.58,4.76,4.76,1.31,3.3,1.01,11.12,1.01,14.77s.3,11.48-1.01,14.77Z"/></g></g></svg>