<svg xmlns="http://www.w3.org/2000/svg" width="35.236" height="36.418" viewBox="0 0 35.236 36.418">
  <path id="Icon_awesome-instagram" data-name="Icon awesome-instagram" d="M17.616,11.11a9.174,9.174,0,0,0-9.032,9.337,9.174,9.174,0,0,0,9.032,9.337,9.174,9.174,0,0,0,9.032-9.337A9.174,9.174,0,0,0,17.616,11.11Zm0,15.407a6.074,6.074,0,0,1,0-12.141,6.074,6.074,0,0,1,0,12.141ZM29.124,10.728A2.108,2.108,0,1,1,27.018,8.55,2.138,2.138,0,0,1,29.124,10.728Zm5.982,2.21c-.134-2.917-.778-5.5-2.846-7.631S27.7,2.512,24.88,2.366c-2.908-.171-11.626-.171-14.534,0C7.531,2.5,5.031,3.17,2.964,5.3S.26,10.012.119,12.93c-.165,3.007-.165,12.019,0,15.025.134,2.917.778,5.5,2.846,7.631s4.559,2.8,7.381,2.942c2.908.171,11.626.171,14.534,0,2.822-.138,5.322-.8,7.381-2.942s2.7-4.713,2.846-7.631c.165-3.007.165-12.011,0-15.017ZM31.349,31.181A6.049,6.049,0,0,1,28,34.643c-2.319.951-7.821.731-10.384.731s-8.073.211-10.384-.731a6.049,6.049,0,0,1-3.349-3.462c-.92-2.4-.707-8.086-.707-10.735s-.2-8.346.707-10.735A6.049,6.049,0,0,1,7.232,6.25c2.319-.951,7.821-.731,10.384-.731S25.689,5.307,28,6.25a6.049,6.049,0,0,1,3.349,3.462c.92,2.4.707,8.086.707,10.735S32.269,28.792,31.349,31.181Z" transform="translate(0.005 -2.238)" fill="#fff"/>
</svg>
