<svg id="グループ_22" data-name="グループ 22" xmlns="http://www.w3.org/2000/svg" xmlns:xlink="http://www.w3.org/1999/xlink" width="35.236" height="39.666" viewBox="0 0 35.236 39.666">
  <defs>
    <clipPath id="clip-path">
      <path id="パス_6" data-name="パス 6" d="M130.094,115.385a2.984,2.984,0,0,0-.114,1.021v3.034h-3.043a3.011,3.011,0,0,0-1.024.113,2,2,0,0,0,0,3.8,3,3,0,0,0,1.024.114h4.692a3.913,3.913,0,0,0,.825-.057,2.075,2.075,0,0,0,1.507-1.5,3.847,3.847,0,0,0,.057-.822v-4.678a2.977,2.977,0,0,0-.114-1.021,2.014,2.014,0,0,0-3.811,0m-8.56,3.162a.983.983,0,0,1,.3-.723l6.526-6.507a.991.991,0,0,1,.725-.3H146.7v29.629H121.534ZM128.416,106c-.227,0-.455.014-.611.028a3.972,3.972,0,0,0-2.446,1.191l-7.636,7.613a3.949,3.949,0,0,0-1.194,2.438c-.014.156-.028.383-.028.609v24.994a5.25,5.25,0,0,0,.028.624,2.53,2.53,0,0,0,2.147,2.141,5.284,5.284,0,0,0,.626.028h29.633a5.281,5.281,0,0,0,.626-.028,2.53,2.53,0,0,0,2.147-2.141,5.36,5.36,0,0,0,.028-.624V108.793a5.361,5.361,0,0,0-.028-.624,2.53,2.53,0,0,0-2.147-2.141,5.345,5.345,0,0,0-.626-.028Z" transform="translate(-116.5 -106)" fill="none"/>
    </clipPath>
  </defs>
  <g id="グループ_21" data-name="グループ 21" clip-path="url(#clip-path)">
    <rect id="長方形_19" data-name="長方形 19" width="37.345" height="41.776" transform="translate(-1.055 -1.055)" fill="#fff"/>
  </g>
</svg>
