<svg xmlns="http://www.w3.org/2000/svg" viewBox="0 0 195.98 52.42"><defs><style>.cls-1{fill:#a2a2a2;}.cls-2{fill:#888;}.cls-3{fill:#333;}</style></defs><g id="レイヤー_2" data-name="レイヤー 2"><g id="レイヤー_1-2" data-name="レイヤー 1"><polygon class="cls-1" points="49.39 43.04 55.46 10.21 40.56 27.59 30.07 10.21 19.59 27.59 4.69 10.21 10.76 43.04 49.39 43.04"/><rect class="cls-1" x="11.17" y="45.52" width="37.8" height="6.9"/><circle class="cls-1" cx="3.03" cy="6.07" r="3.03"/><circle class="cls-1" cx="55.46" cy="6.07" r="3.03"/><circle class="cls-2" cx="30.07" cy="3.03" r="3.03"/><path class="cls-3" d="M85.43,50.05l.48-19.43c-1.56,2.11-2.4,3.15-3.64,3.15A1.85,1.85,0,0,1,80.39,32,1.94,1.94,0,0,1,81,30.69,37.18,37.18,0,0,0,89,17.58a1.72,1.72,0,0,1,1.64-1.16,2.27,2.27,0,0,1,2.28,2c0,.28-.08,1.08-3.16,6.32l-.52,25.27a1.88,1.88,0,0,1-2,1.76,1.69,1.69,0,0,1-1.84-1.72Zm18-8.76c2,0,5.16-.08,5.68-.08,1.84,0,2.68.88,2.68,1.92,0,1.24-1.16,2.28-3.76,4.12a31.86,31.86,0,0,0,7.83.88,1.37,1.37,0,0,1,1.32,1.48,1.72,1.72,0,0,1-1.88,1.72,24.81,24.81,0,0,1-10.63-2.12,24.25,24.25,0,0,1-9.4,2.6,1.7,1.7,0,0,1-1.68-1.72,1.4,1.4,0,0,1,1.52-1.4,22.48,22.48,0,0,0,6.56-1.32,10.89,10.89,0,0,1-2.28-2.44c-3,2.44-6.4,4.28-7.36,4.28a1.56,1.56,0,0,1-1.6-1.48,1.45,1.45,0,0,1,1-1.32,33,33,0,0,0,9.28-6.4c-1.72-.32-2.36-1.28-2.36-3,0-2.64,0-3.52,1.44-3.52.72,0,1.48.4,1.48,1.16s0,1.8,0,2.12c0,.68.24.92,2,.92,2.36,0,3.24,0,3.24-1.4a1.18,1.18,0,0,1,1.32-1.16c.76,0,1.56.44,1.56,1.2,0,3.52-1.76,3.64-4.92,3.84a2.14,2.14,0,0,1-.48.68Zm9.67-7.16c0-.88-.31-1.07-1.47-1.07-2.08,0-4.76,0-7.44,0,.48.31,1.88,1.39,1.88,2.39a1.47,1.47,0,0,1-1.4,1.4,1.09,1.09,0,0,1-1-.56,9,9,0,0,0-1.76-2,.89.89,0,0,1-.36-.68.92.92,0,0,1,.24-.59c-2.12,0-4.12,0-5.72,0s-1.56.47-1.6,1.15v1.36c0,.84-.88,1.32-1.72,1.32s-1.68-.44-1.68-1.36V34.25c0-1.48.12-3.48,3.4-3.52h1.24c0-2.19,0-4.75,0-6.31s1-2.12,3.44-2.24c.4,0,1.16,0,2.08,0,.08-.32.16-.72.28-1.24l-7,0a1.44,1.44,0,1,1,0-2.88h19.63a1.44,1.44,0,1,1,0,2.88l-9,0c-.12.44-.28.88-.4,1.24,1.52,0,3,0,3.56,0,2.24.08,3.48.88,3.52,2.28,0,.76,0,1.76,0,2.88s0,2.28,0,3.39h1c1.68,0,3.63.69,3.71,2.68v2a1.64,1.64,0,0,1-1.76,1.4,2.52,2.52,0,0,1-.56-.08,3.29,3.29,0,0,1,1.17,2,1.59,1.59,0,0,1-1.57,1.56,1.56,1.56,0,0,1-1.31-.8,11.5,11.5,0,0,0-2.44-2.84,1.3,1.3,0,0,1-.52-1,1.42,1.42,0,0,1,1.48-1.28c.72,0,1.27.52,2,1.16ZM91.79,39.89a1.39,1.39,0,0,1,.88-1.24A6.1,6.1,0,0,0,95,36.13a1.19,1.19,0,0,1,1.16-.88,1.58,1.58,0,0,1,1.6,1.4c0,1.32-2.68,4.6-4.36,4.6A1.51,1.51,0,0,1,91.79,39.89Zm16.84-14.63c0-.16,0-.32,0-.44-.08-.72-.08-.8-4.84-.8-4,0-4.64,0-4.64.8l0,.44Zm0,1.52H99.07V28h9.56Zm0,2.72H99.07l0,1.19c1.56,0,3.12,0,4.72,0s3.2,0,4.72,0Zm-1.52,14.39a.19.19,0,0,0-.2-.2h-.08c-.16,0-2.8,0-4.76,0a9.56,9.56,0,0,0,2.64,2.2C105.23,45.57,107.07,44.37,107.07,43.89Z"/><path class="cls-3" d="M154.1,27.38l-11.47-.2c4.24,3.28,8.52,4.88,13.23,6.51a1.65,1.65,0,0,1,1.28,1.56,2.32,2.32,0,0,1-2.32,2.16c-1,0-7.55-2.68-13.71-7.83l.08,2.83v0A1.68,1.68,0,0,1,139.31,34a1.7,1.7,0,0,1-1.88-1.53v0l.08-2.71c-4.88,4.35-12.52,8.23-14,8.23a1.92,1.92,0,0,1-2-1.8,1.8,1.8,0,0,1,1.32-1.64,41,41,0,0,0,12.84-7.27l-11.08.16h0a1.58,1.58,0,0,1-1.68-1.64,1.64,1.64,0,0,1,1.72-1.64l12.88,0,0-2.6c-2.44.12-4.84.2-6.92.2-1,0-1.84,0-2.6,0A1.82,1.82,0,0,1,126,20c0-.76.6-1.52,1.84-1.52h.08c1.24,0,2.52.08,3.84.08a88.86,88.86,0,0,0,16.6-1.48,2.46,2.46,0,0,1,.52,0,1.66,1.66,0,0,1,1.72,1.72,1.51,1.51,0,0,1-1.2,1.56c-2.2.4-5.16.76-8.24,1l0,2.84,13,0a1.59,1.59,0,0,1,1.64,1.64,1.56,1.56,0,0,1-1.6,1.64Zm-9.51,15.31a1.91,1.91,0,0,1-1.88,1.24c-.88,0-1.72-.48-1.72-1.28a1,1,0,0,1,.08-.48A23.81,23.81,0,0,0,142.35,38c0-.4-.36-.56-.68-.56l-2.84,0c-1.56,12.4-13.28,14.32-13.44,14.32a1.94,1.94,0,0,1-1.92-1.88,1.63,1.63,0,0,1,1.36-1.6c6.12-1.64,9.8-5.36,10.4-10.84-1.2,0-2.44,0-3.64,0h0A1.4,1.4,0,0,1,130.07,36a1.47,1.47,0,0,1,1.52-1.52c1.92,0,4.36-.08,6.72-.08,1.68,0,3.32,0,4.68,0,1.76,0,3.2.72,3.2,2.44a11.55,11.55,0,0,1-.48,2.36h1.48c2.16,0,4.56.44,4.56,3.2a3.66,3.66,0,0,1,0,.64c-.48,3.88-2,8.24-8.36,8.24a17.53,17.53,0,0,1-4.28-.6,1.86,1.86,0,0,1-1.56-1.76,1.77,1.77,0,0,1,1.8-1.8,1.87,1.87,0,0,1,.64.08,12.5,12.5,0,0,0,3.56.64,4,4,0,0,0,3.76-2,8.49,8.49,0,0,0,.76-2.92c0-.52-.32-.76-1-.76h-2.2Z"/><path class="cls-3" d="M185.67,46.53a27.71,27.71,0,0,0,8.43,1.64A1.78,1.78,0,0,1,196,49.93a1.94,1.94,0,0,1-2.08,1.92,32.44,32.44,0,0,1-10.63-2.64,1.49,1.49,0,0,1-1-1.4,1.93,1.93,0,0,1,.52-1.28H176a1.91,1.91,0,0,1,.48,1.24,1.65,1.65,0,0,1-1,1.48A31.71,31.71,0,0,1,164.75,52a1.91,1.91,0,0,1-2.12-1.8,1.87,1.87,0,0,1,2-1.8,22.77,22.77,0,0,0,8.6-1.88l-.88,0c-2.8,0-4.16-1.2-4.24-2.72C168,42.45,168,41.21,168,40c0-1.4,0-2.76.12-4.12s1.08-2.67,4.16-2.71c2.64,0,5.4,0,8.28,0,2.08,0,4.24,0,6.4,0,2.36,0,3.84,1.07,3.92,2.51s.16,3,.16,4.48c0,1.2,0,2.44-.12,3.6-.08,1.48-1.44,2.72-4.12,2.76Zm6.08-18.59V26.18c0-1.64-.12-2.2-2.16-2.24-3.2,0-7.4-.08-11.44-.08-3.36,0-6.6,0-9,.08-2.16,0-2.2.84-2.24,1.76v2.16a1.91,1.91,0,0,1-3.8,0c0-.48,0-1,0-1.64,0-2.36,0-5,4.28-5l3,0c-.48-.6-1-1.12-1.48-1.68a1.29,1.29,0,0,1-.36-.8c0-.88,1.08-1.64,2.08-1.64,1.52,0,3.2,2.88,3.84,4.08,1,0,2.08,0,3.12,0V17.9a1.89,1.89,0,0,1,2-2,1.86,1.86,0,0,1,2,2V21h3.32a24.93,24.93,0,0,0,1.52-3.16,1.77,1.77,0,0,1,1.72-1.2,2.06,2.06,0,0,1,2.12,1.84c0,.24,0,.72-1.36,2.56.92,0,1.76.08,2.64.08,2.44,0,4.16,1.28,4.27,3.36,0,.48.08,1.12.08,1.72,0,1.76,0,3.48-2.07,3.48A1.74,1.74,0,0,1,191.75,28Zm-11.4-2.8c8.72,0,9,0,9,3.36s-.68,3.4-9.8,3.4c-9.32,0-10.2,0-10.2-3.24,0-2.4.32-3.48,4-3.48C175.55,25.14,178,25.14,180.35,25.14Zm-8.72,13.79v1.48h15.64c0-.52,0-1,0-1.48Zm15.56-2.32c-.08-1.24-.2-1.24-7.72-1.24-2.12,0-4.24,0-6.12.08-1.2,0-1.6.6-1.64,1.16v.24h15.48Zm0,5.88H171.71v.4c0,.84.6,1.12,1.64,1.16,1.88,0,4,0,6.08,0s4.24,0,6.2,0c1,0,1.52-.32,1.56-1.16Zm-2.92-15c-1.52,0-3.16,0-4.84,0s-3.36,0-5,0c-.88,0-1.28.16-1.28.72v.6c0,.44.36.64,5.52.64,6.76,0,6.76,0,6.76-1C185.47,27.9,185.31,27.5,184.27,27.5Z"/></g></g></svg>