<?xml version="1.0" encoding="UTF-8"?><svg id="_レイヤー_2" xmlns="http://www.w3.org/2000/svg" viewBox="0 0 35.84 50.8"><defs><style>.cls-1{fill:#1b1464;}</style></defs><g id="_レイヤー_1-2"><path class="cls-1" d="M12.56,4.32C15.52,1.68,19.2,0,23.28,0c7.76,0,12.56,5.44,12.56,12.64,0,8.08-5.44,13.76-14.64,21.76l-12.32,10.8h14.48c4.4,0,5.6-.48,9.76-6.48l2,.96c-1.68,3.44-3.76,7.84-5.2,11.12H0l.16-1.68C18.24,33.28,28.96,24.24,28.96,13.76c0-4.72-2.32-8.56-8.4-8.56-5.28,0-8.96,4.16-11.28,7.2l-1.76-1.68,5.04-6.4Z"/></g></svg>