<?xml version="1.0" encoding="UTF-8"?><svg id="_レイヤー_2" xmlns="http://www.w3.org/2000/svg" viewBox="0 0 32.48 51.76"><defs><style>.cls-1{fill:#1b1464;}</style></defs><g id="_レイヤー_1-2"><path class="cls-1" d="M11.36,4.32C13.68,1.84,17.2,0,21.84,0c7.04,0,10.64,5.2,10.64,9.76,0,6-4.4,8.96-9.6,11.92,5.28,1.52,9.52,5.44,9.52,11.28,0,10.64-12.88,18.8-22.8,18.8-5.68,0-9.6-3.36-9.6-5.52,0-1.76,1.76-3.68,2.88-3.68,.64,0,1.28,.48,2.16,1.2,2.88,2.64,5.36,4.16,8.8,4.16,6.48,0,11.44-4.08,11.44-12.48,.08-6.88-4.08-10-8.96-10-1.92,0-3.68,.4-4.72,.72l-.4-2.24c9.28-2.56,14.64-6.24,14.64-12.32,0-4.16-2.32-6.8-6.64-6.8-4.56,0-7.92,3.04-10.16,5.92l-1.68-1.76,4-4.64Z"/></g></svg>