<svg xmlns="http://www.w3.org/2000/svg" width="35.236" height="28.618" viewBox="0 0 35.236 28.618">
  <path id="Icon_awesome-twitter" data-name="Icon awesome-twitter" d="M31.614,10.513c.022.313.022.626.022.939C31.636,21,24.37,32,11.089,32A20.407,20.407,0,0,1,0,28.757a14.94,14.94,0,0,0,1.744.089,14.463,14.463,0,0,0,8.965-3.085,7.234,7.234,0,0,1-6.752-5.008,9.107,9.107,0,0,0,1.364.112,7.638,7.638,0,0,0,1.9-.246,7.222,7.222,0,0,1-5.791-7.087v-.089a7.273,7.273,0,0,0,3.264.917A7.232,7.232,0,0,1,2.459,4.7a20.527,20.527,0,0,0,14.89,7.557,8.152,8.152,0,0,1-.179-1.654,7.228,7.228,0,0,1,12.5-4.941,14.218,14.218,0,0,0,4.583-1.744A7.2,7.2,0,0,1,31.077,7.9a14.477,14.477,0,0,0,4.158-1.118,15.523,15.523,0,0,1-3.622,3.734Z" transform="translate(0 -3.381)" fill="#fff"/>
</svg>
