<?xml version="1.0" encoding="UTF-8"?><svg xmlns="http://www.w3.org/2000/svg" viewBox="0 0 50.11 40.7"><defs><style>.e{fill:#fff;}</style></defs><g id="a"/><g id="b"><g id="c"><path id="d" class="e" d="M44.96,10.14c.03,.44,.03,.89,.03,1.34,0,13.58-10.33,29.22-29.22,29.22-5.59,.01-11.07-1.59-15.77-4.61,.82,.09,1.65,.13,2.48,.13,4.62,.01,9.11-1.53,12.75-4.39-4.39-.08-8.25-2.94-9.6-7.12,.64,.1,1.29,.15,1.94,.16,.91,0,1.82-.12,2.7-.35-4.79-.97-8.24-5.19-8.24-10.08v-.13c1.42,.8,3.01,1.24,4.64,1.31C2.14,12.6,.75,6.57,3.5,1.87c5.22,6.42,12.91,10.32,21.18,10.74-.16-.77-.25-1.56-.25-2.35C24.43,4.58,29.04-.01,34.72,0c2.83,0,5.53,1.18,7.47,3.24,2.3-.44,4.51-1.28,6.52-2.48-.77,2.37-2.37,4.39-4.51,5.66,2.04-.23,4.03-.77,5.91-1.59-1.41,2.05-3.15,3.85-5.15,5.31h0Z"/></g></g></svg>