<?xml version="1.0" encoding="utf-8"?>
<!-- Generator: Adobe Illustrator 26.5.0, SVG Export Plug-In . SVG Version: 6.00 Build 0)  -->
<svg version="1.1" id="レイヤー_1" xmlns="http://www.w3.org/2000/svg" xmlns:xlink="http://www.w3.org/1999/xlink" x="0px"
	 y="0px" viewBox="0 0 35.2 28.6" style="enable-background:new 0 0 35.2 28.6;" xml:space="preserve">
<style type="text/css">
	.st0{fill:#4A2C06;}
</style>
<path id="Icon_awesome-twitter" class="st0" d="M31.6,7.1c0,0.3,0,0.6,0,0.9c0,9.5-7.3,20.5-20.5,20.5c-3.9,0-7.8-1.1-11.1-3.2
	c0.6,0.1,1.2,0.1,1.7,0.1c3.3,0,6.4-1.1,9-3.1c-3.1-0.1-5.8-2.1-6.8-5c0.5,0.1,0.9,0.1,1.4,0.1c0.6,0,1.3-0.1,1.9-0.2
	c-3.4-0.7-5.8-3.6-5.8-7.1v-0.1c1,0.6,2.1,0.9,3.3,0.9C1.5,8.9,0.5,4.6,2.5,1.3c3.7,4.5,9.1,7.3,14.9,7.6c-0.1-0.5-0.2-1.1-0.2-1.7
	c0-4,3.2-7.2,7.2-7.2c2,0,3.9,0.8,5.3,2.3c1.6-0.3,3.2-0.9,4.6-1.7c-0.5,1.7-1.7,3.1-3.2,4c1.4-0.2,2.8-0.5,4.2-1.1
	C34.2,4.8,33,6.1,31.6,7.1L31.6,7.1z"/>
</svg>
