<?xml version="1.0" encoding="UTF-8"?><svg id="_レイヤー_2" xmlns="http://www.w3.org/2000/svg" viewBox="0 0 180 180"><defs><style>.cls-1{fill:#fff;}.cls-2{fill:none;stroke:#fff;stroke-miterlimit:10;}.cls-3{fill:#1b1464;}</style></defs><g id="_レイヤー_1-2"><g><circle class="cls-3" cx="90" cy="90" r="90"/><g><path class="cls-1" d="M36.4,94.19c-.05,1.2,.48,1.77,1.95,1.97,1.42,.18,5.2,0,6.82-.87,2.17-1.17,3.75,1.42,.92,2.67-2.1,.92-6.1,1-8.67,.67-2.17-.27-3.52-1.7-3.47-3.72,.05-2.47,.15-4.42,.28-7.35,.07-1.75-.08-2.6-.15-3.15-.25-1.95,2.65-2.37,2.8-.1,.07,1.32-.03,1.85-.1,3.12-.02,.62-.07,1.2-.1,1.72,1.4-.27,2.8-.65,4.57-1.32,.7-.27,1.55-.65,2.15-1.17,1.32-1.12,3.55,.55,2.15,2.02-.58,.62-2.17,1.17-2.55,1.3-2.22,.75-4.12,1.4-6.47,1.75-.05,.77-.07,1.55-.12,2.45Zm11.6-7.62c-1.45,0-2.6-1.15-2.6-2.6s1.15-2.62,2.6-2.62,2.62,1.17,2.62,2.62-1.17,2.6-2.62,2.6Zm0-3.87c-.7,0-1.25,.58-1.25,1.27s.55,1.25,1.25,1.25,1.27-.55,1.27-1.25-.58-1.27-1.27-1.27Z"/><path class="cls-1" d="M58.77,91.94c-1.72,1.15-3.2-1.12-1.45-2.17,2.42-1.47,4.25-3.97,5.42-5.8,.43-.65,.8-1.42,.98-2.05,.45-1.67,2.95-1.22,2.67,.43-.05,.35-.2,.72-.38,1.1,1.2-.2,2.5-.5,3.62-.57,1.75-.1,3.3,1.12,2.35,2.75-4.02,6.9-7.67,11.72-14.42,14.35-2.15,.82-3.12-1.72-1-2.42,5.27-1.77,9.37-6.27,12.25-11.7,.25-.5,.02-.6-.35-.6-1,.03-3,.45-4,.62-1.5,2.07-3.5,4.57-5.7,6.07Z"/><path class="cls-1" d="M92.6,90.44c-.35,3.57-3.47,7.9-8.2,9.75-2.42,.95-2.92-1.82-1.17-2.37,3.97-1.25,6.5-4.92,6.72-7.47,.02-.38-.03-.77-.3-1.15-.1-.12-.12-.25-.18-.38-1.52,.18-2.95,.38-4.05,.5-1.42,.15-2.3,.42-3.1,.48-1.65,.07-1.95-2.37-.03-2.52,.9-.08,2.05-.05,3.15-.18,1.9-.2,6.1-.67,8.7-.9,1.53-.12,2.35-.37,3.55-.2,1.12,.15,1.55,.52,1.52,1.25-.03,.62-.58,1.23-1.65,1.23-1.52-.03-2.87-.1-4.3,0-.28,.02-.55,.02-.85,.05,.28,.52,.25,1.27,.18,1.92Zm-.38-6.4c-1.47,.1-2.88,.25-4,.38-1.12,.12-1.88,.25-2.95,.23-1.6-.02-2-2.32,0-2.4,.87-.02,1.57,.05,2.47-.05,1.2-.12,2.92-.3,4.42-.45,.45-.05,.8-.15,1.15-.23,.38-.07,.75-.17,1.22-.15,1.9,.08,2.3,2.37-.05,2.52-.83,.05-1.45,.1-2.27,.15Z"/><path class="cls-1" d="M114.85,93.06c-1.3,1.3-2.67,2.4-4.4,3.45-1.88,1.15-2.97-1.05-1.52-1.75,2.82-1.4,6.8-4.97,7.9-8.07,.45-1.3,2.88-.6,2.15,.95-.3,.62-.45,.95-.87,1.55-.45,.6-.88,1.17-1.33,1.72,.05,.07,.08,.12,.1,.2,.15,.43,.15,.62,.1,1.8-.08,1.37-.05,4,0,5.9,.02,.92-.58,1.3-1.12,1.38-.6,.07-1.12-.38-1.12-1.25,.03-1.87,.2-4.17,.12-5.85v-.02Z"/><path class="cls-1" d="M133.42,99.96c-2.17,1.3-3.95-1.2-1.67-2.35,3.7-1.85,5.4-4.7,5.95-7.8,.12-.75,.12-1.65,0-2.27-.3-1.55,2.52-2.1,2.88-.25,.05,.25,.05,.62,.05,1.02,1.5-.72,3.35-2.05,4.27-3.32,.42-.58,.5-.88-.45-.83-3.15,.12-7.17,.67-8.3,.83-1.35,.17-2.02,.37-3.42,.32-1.62-.05-1.92-2.65,.17-2.6,1.08,.03,2.25-.12,3.3-.2,1.1-.08,5.27-.48,9.3-.7,2.8-.15,3.88,1.95,2.1,4.02-1.6,1.87-3.72,3.85-6.27,4.8-.38,.15-.75,.15-1.05,.02-.95,3.87-2.87,6.9-6.85,9.3Z"/><path class="cls-1" d="M46.67,129.99c-.7,0-1.15-.57-1.15-1.15,0-.42,.23-.85,.8-1.07,.85-.32,1.95-.82,3.07-1.32,1.67-.75,3.8-1.67,5.77-1.67,2.88,0,4.52,2.07,4.52,4.05,0,4.25-7.42,6.47-9.12,6.47-.77,0-1.22-.58-1.22-1.15,0-.47,.33-.95,1.02-1.05,4.17-.57,7-2.55,7-4.35,0-.6-.58-2-2.35-2-1.22,0-2.82,.67-4.85,1.67-2.65,1.4-3.07,1.57-3.5,1.57Z"/><path class="cls-1" d="M82.69,135.48h-.25c-5.42-.5-8.85-4.25-8.85-8.1,0-.98,.23-2.67,1.8-4.57,.08-.1,.12-.17,.12-.22,0-.03-.03-.05-.05-.05-.05,0-.15,.05-.25,.1-3.92,2.02-4.4,2.17-4.95,2.17-.92,0-1.52-.65-1.52-1.35,0-.5,.35-1.05,1.15-1.3,.53-.17,1.95-.6,2.7-.87,1.17-.42,3.25-1.07,5.72-2.05,1.85-.72,4.3-1.55,6.62-1.55,1.25,0,1.7,.57,1.7,1.22,0,1.27-1.05,1.55-2,1.55-.17,0-.38,0-.58-.03-.2-.02-.4-.02-.6-.02-3.87,0-7.67,3.3-7.67,6.65,0,3,2.85,5.55,6.77,5.55,1.25,0,1.85,.72,1.85,1.47,0,.7-.57,1.4-1.72,1.4Z"/><path class="cls-1" d="M100.87,129.54c0-3.17,3.27-4.62,4.17-6.27,.38-.67,.55-1.4,.55-2.05,0-2.45-1.85-3.02-2.85-3.02-2,0-2.82,1.65-3.02,2.32-.12,.5-.7,.75-1.27,.75-.67,0-1.38-.38-1.38-1.2,0-.92,1.52-4.37,5.65-4.37,2.95,0,5.5,2.05,5.5,5.47,0,.8-.17,1.67-.5,2.5-.9,2.25-4.17,3.52-4.17,5.8,0,.95-.72,1.45-1.4,1.45s-1.28-.45-1.28-1.37Zm1.35,6.55c-.95,0-1.72-.8-1.72-1.65,0-1.1,1.05-1.72,1.72-1.72,.97,0,1.72,.6,1.72,1.72,0,1.2-1.05,1.65-1.72,1.65Z"/><path class="cls-1" d="M125.87,129.54c0-3.17,3.27-4.62,4.17-6.27,.38-.67,.55-1.4,.55-2.05,0-2.45-1.85-3.02-2.85-3.02-2,0-2.82,1.65-3.02,2.32-.12,.5-.7,.75-1.27,.75-.67,0-1.38-.38-1.38-1.2,0-.92,1.52-4.37,5.65-4.37,2.95,0,5.5,2.05,5.5,5.47,0,.8-.17,1.67-.5,2.5-.9,2.25-4.17,3.52-4.17,5.8,0,.95-.72,1.45-1.4,1.45s-1.28-.45-1.28-1.37Zm1.35,6.55c-.95,0-1.72-.8-1.72-1.65,0-1.1,1.05-1.72,1.72-1.72,.97,0,1.72,.6,1.72,1.72,0,1.2-1.05,1.65-1.72,1.65Z"/></g><circle class="cls-2" cx="90" cy="90" r="85.5"/><g><path class="cls-1" d="M89.85,46.05c-.8,0-1.49,.25-2.06,.76-.59,.49-.89,1.11-.89,1.88s.3,1.42,.89,1.9c.57,.5,1.26,.76,2.06,.76s1.47-.25,2.06-.76c.59-.5,.89-1.14,.89-1.9s-.3-1.39-.89-1.88c-.59-.5-1.28-.76-2.06-.76Z"/><path class="cls-1" d="M96.84,36.01c0-1.53-.63-2.8-1.88-3.83-1.3-1.09-2.97-1.64-5-1.64-2.33,0-4.2,.73-5.63,2.19-1.06,1.09-1.59,2.09-1.59,3,0,.56,.18,1.01,.55,1.35,.35,.36,.78,.55,1.3,.55,.68,0,1.28-.36,1.8-1.09,.56-.85,.99-1.39,1.3-1.62,.57-.49,1.33-.73,2.27-.73,2.07,0,3.1,.68,3.1,2.03,0,.59-.43,1.14-1.3,1.64-.82,.42-1.65,.85-2.5,1.3-.85,.64-1.28,1.43-1.28,2.37v1.28c0,.59,.2,1.05,.6,1.38,.35,.26,.79,.39,1.33,.39,.49,0,.91-.15,1.28-.44,.38-.31,.57-.76,.57-1.33,0-.38,.03-.63,.08-.76,.09-.19,.37-.41,.86-.65,1.63-.96,2.59-1.56,2.87-1.82,.85-.83,1.28-2.02,1.28-3.57Z"/><path class="cls-1" d="M79.06,56.18l-1.03,.98c-2.51,2.4-6.94,4.42-9.68,4.42v3.81c3.78,0,8.33-2.21,11.26-4.56,3.21,1.59,6.78,2.43,10.39,2.43,12.91,0,23.41-10.5,23.41-23.41s-10.5-23.41-23.41-23.41-23.41,10.5-23.41,23.41c0,4.34,1.2,8.58,3.46,12.26l3.25-2c-1.89-3.08-2.9-6.63-2.9-10.26,0-10.81,8.79-19.6,19.6-19.6s19.6,8.79,19.6,19.6-8.79,19.6-19.6,19.6c-3.41,0-6.76-.89-9.7-2.57l-1.23-.7Z"/></g></g></g></svg>